<svg id="Layer_1" data-name="Layer 1" xmlns="http://www.w3.org/2000/svg" viewBox="0 0 149.4 134.74"><defs><style>.cls-1{fill:#ff512f;}</style></defs><path class="cls-1" d="M119.78,36.07l-6.6,29.2L104.75,30,75.13,18l-8,35.26h0L60.09,12,30.48,0,0,134.74H32.32L41.67,93.4h0l7.06,41.34H81.05l8-35.27,8.43,35.27h32.33L149.4,48ZM39.48,92.9l-9,39.59H2.82L32.09,3.08,57.48,13.33ZM43,87.65,58.79,17.71l7.06,41.35L50,129ZM86.84,99l-7.58,33.52H51.55L69.35,53.8l7.39-32.69,25.39,10.26Zm3.32-4.47L103.62,35l8.43,35.27L98.59,129.77Zm37.83,38H100.28l21.11-93.34L146.78,49.4Z"/></svg>