<svg id="Layer_1" data-name="Layer 1" xmlns="http://www.w3.org/2000/svg" viewBox="0 0 32 32"><defs><style>.cls-1{fill:#c8c8d4;}</style></defs><path class="cls-1" d="M16,0A16,16,0,1,0,32,16,16,16,0,0,0,16,0Zm0,31A15,15,0,1,1,31,16,15,15,0,0,1,16,31Z"/><path class="cls-1" d="M20.29,14.5H11.71A1.7,1.7,0,0,0,10,16.19h0v7.62a1.7,1.7,0,0,0,1.71,1.69h8.58A1.7,1.7,0,0,0,22,23.81h0V16.19A1.7,1.7,0,0,0,20.29,14.5Zm-3.79,9h-1v-4h1Z"/><path class="cls-1" d="M13,10.5a3,3,0,0,1,6,0v3h1v-3a4,4,0,0,0-8,0v3h1Z"/></svg>