<svg xmlns="http://www.w3.org/2000/svg" width="35.999" height="36" viewBox="0 0 35.999 36"><defs><style>.a{fill:#c8c8d4;}</style></defs><g transform="translate(-665.04 -567.146)"><path class="a" d="M683.04,603.146a18,18,0,1,1,18-18A18.021,18.021,0,0,1,683.04,603.146Zm0-35a17,17,0,1,0,17,17A17.018,17.018,0,0,0,683.04,568.146Z"/><path class="a" d="M692.139,583.217H683.58a6,6,0,1,0,0,3.859h.89l1.914-1.936,1.914,1.936,1.914-1.936,1.914,1.936,1.914-1.936Zm-14.17,3.535a1.617,1.617,0,1,1,1.6-1.634v.017a1.607,1.607,0,0,1-1.6,1.617Z"/></g></svg>