<svg xmlns="http://www.w3.org/2000/svg" width="40" height="40" viewBox="0 0 40 40"><path d="M20,0A20,20,0,1,0,40,20,20,20,0,0,0,20,0ZM30.05,16.21c.01.2.01.41.01.62A13.628,13.628,0,0,1,16.34,30.55a13.435,13.435,0,0,1-7.37-2.18,8.768,8.768,0,0,0,1.15.07,9.693,9.693,0,0,0,5.99-2.06,4.815,4.815,0,0,1-4.5-3.35,4.6,4.6,0,0,0,.91.09,4.807,4.807,0,0,0,1.27-.17,4.827,4.827,0,0,1-3.87-4.73v-.06a4.737,4.737,0,0,0,2.18.6,4.82,4.82,0,0,1-1.5-6.43,13.679,13.679,0,0,0,9.94,5.04,4.419,4.419,0,0,1-.13-1.1,4.825,4.825,0,0,1,8.34-3.3,9.765,9.765,0,0,0,3.06-1.17,4.819,4.819,0,0,1-2.12,2.67,9.787,9.787,0,0,0,2.77-.76A9.879,9.879,0,0,1,30.05,16.21Z"/></svg>