<?xml version="1.0" encoding="utf-8"?>
<!-- Generator: Adobe Illustrator 25.0.1, SVG Export Plug-In . SVG Version: 6.00 Build 0)  -->
<svg version="1.1" id="Layer_1" xmlns="http://www.w3.org/2000/svg" xmlns:xlink="http://www.w3.org/1999/xlink" x="0px" y="0px"
	 viewBox="0 0 400 400" style="enable-background:new 0 0 400 400;" xml:space="preserve">
<style type="text/css">
	.st0{fill:#001C32;}
	.st1{fill:#FF512F;}
	.st2{fill:#317AFF;}
	.st3{fill:#91919D;}
</style>
<rect x="0.2" class="st0" width="400" height="400"/>
<polygon class="st1" points="200.2,63.7 80.8,131.9 80.8,268.1 104.6,281.8 104.6,145.5 224,77.4 "/>
<polygon class="st2" points="224,213.6 224,240.9 247.9,227.2 247.9,200 "/>
<polygon class="st2" points="247.9,91 128.5,159.1 128.5,295.4 152.4,309 152.4,172.8 271.8,104.6 "/>
<polygon class="st3" points="271.8,186.4 271.8,240.9 224,268.1 224,295.4 295.7,254.5 295.7,172.8 "/>
<polygon class="st3" points="295.7,118.2 176.3,186.4 176.3,322.6 200.2,336.2 200.2,200 319.6,131.9 "/>
</svg>
