<?xml version="1.0" encoding="utf-8"?>
<!-- Generator: Adobe Illustrator 24.1.3, SVG Export Plug-In . SVG Version: 6.00 Build 0)  -->
<svg version="1.1" id="Layer_1" xmlns="http://www.w3.org/2000/svg" xmlns:xlink="http://www.w3.org/1999/xlink" x="0px" y="0px"
	 viewBox="0 0 374.17 153.07" style="enable-background:new 0 0 374.17 153.07;" xml:space="preserve">
<style type="text/css">
	.st0{fill:#FFFFFF;}
	.st1{fill:none;stroke:#000000;stroke-width:0.2195;stroke-miterlimit:10;}
	.st2{fill:#231F20;}
	.st3{fill:#F26826;}
	.st4{fill:#06ABC7;}
	.st5{fill:#929396;}
</style>
<g>
	<g>
		<path class="st2" d="M43.93,83.16c1.68,2.32,2.52,5.1,2.52,8.36c0,4.74-1.67,8.6-5.01,11.58c-3.34,2.98-7.65,4.47-12.95,4.47H4.17
			V52.96h19.36c5.08,0,9.23,1.42,12.45,4.26c3.23,2.84,4.84,6.5,4.84,10.96c0,3.97-1.35,7.25-4.05,9.85
			C39.86,79.14,42.25,80.85,43.93,83.16z M14.93,62.56v12.49h7.7c2.26,0,4.01-0.57,5.25-1.7c1.24-1.13,1.86-2.66,1.86-4.59
			c0-1.93-0.62-3.45-1.86-4.55c-1.24-1.1-2.99-1.65-5.25-1.65H14.93z M33.38,96.16c1.38-1.21,2.07-2.9,2.07-5.05
			c0-2.1-0.69-3.76-2.07-5.01c-1.38-1.24-3.28-1.86-5.71-1.86H14.93v13.74h12.74C30.1,97.98,32,97.37,33.38,96.16z"/>
		<path class="st2" d="M63.91,107.57H52.74V45.52h11.17V107.57z"/>
		<path class="st2" d="M108.09,71.87c4.3,4.11,6.45,9.17,6.45,15.18c0,6.01-2.15,11.09-6.45,15.22c-4.3,4.14-9.52,6.21-15.64,6.21
			c-6.12,0-11.29-2.06-15.51-6.16c-4.22-4.11-6.33-9.2-6.33-15.27c0-6.01,2.12-11.07,6.37-15.18c4.25-4.11,9.43-6.16,15.55-6.16
			C98.6,65.7,103.79,67.76,108.09,71.87z M84.92,79.07c-1.99,2.12-2.98,4.81-2.98,8.07s0.99,5.92,2.98,7.98
			c1.99,2.07,4.52,3.1,7.61,3.1c3.03,0,5.56-1.05,7.57-3.14c2.01-2.1,3.02-4.74,3.02-7.94s-1.01-5.87-3.02-8.03
			c-2.01-2.15-4.54-3.23-7.57-3.23C89.44,75.88,86.91,76.94,84.92,79.07z"/>
		<path class="st2" d="M151.36,68.39c3.03,1.79,5.43,4.26,7.2,7.41l-7.78,6.04c-2.65-3.97-5.93-5.96-9.85-5.96
			c-3.14,0-5.72,1.06-7.74,3.19s-3.02,4.79-3.02,7.98c0,3.25,1.01,5.94,3.02,8.07c2.01,2.12,4.59,3.19,7.74,3.19
			c3.81,0,7.09-1.96,9.85-5.87l7.78,5.96c-1.76,3.14-4.18,5.63-7.24,7.45c-3.06,1.82-6.58,2.73-10.55,2.73
			c-6.12,0-11.31-2.07-15.55-6.21c-4.25-4.14-6.37-9.24-6.37-15.31c0-6.01,2.12-11.07,6.37-15.18c4.25-4.11,9.43-6.16,15.55-6.16
			C144.79,65.7,148.32,66.6,151.36,68.39z"/>
		<path class="st2" d="M192.39,107.57l-16.47-22.59v22.59h-11.17V45.52h11.17v38.64l14.73-17.54h13.24L188.5,84.74l16.63,22.84
			H192.39z"/>
	</g>
	<g>
		<polygon class="st0" points="239.54,39.31 239.54,113.76 304.77,150.98 370,113.76 370,39.31 304.77,2.09 		"/>
		<polygon class="st2" points="261.29,51.72 261.29,113.76 272.16,107.55 272.16,57.92 315.65,33.11 315.65,20.7 		"/>
		<polygon class="st3" points="304.77,14.5 250.41,45.52 250.41,107.55 261.29,113.76 261.29,51.72 315.65,20.7 		"/>
		<polygon class="st4" points="315.65,82.74 315.65,95.15 326.52,88.94 326.52,76.54 		"/>
		<polygon class="st2" points="326.52,76.54 326.52,88.94 315.65,95.15 315.65,107.55 326.52,101.35 337.39,95.15 337.39,70.33 		
			"/>
		<polygon class="st2" points="283.03,64.13 283.03,126.17 293.9,119.96 293.9,70.33 337.39,45.52 337.39,33.11 		"/>
		<polygon class="st4" points="326.52,26.91 315.65,33.11 272.16,57.92 272.16,119.96 283.03,126.17 283.03,64.13 337.39,33.11 		
			"/>
		<polygon class="st5" points="337.39,70.33 337.39,95.15 315.65,107.55 315.65,119.96 348.26,101.35 348.26,64.13 		"/>
		<polygon class="st5" points="348.26,39.31 293.9,70.33 293.9,132.37 304.77,138.57 304.77,76.54 359.13,45.52 		"/>
		<path class="st2" d="M304.77,76.54v62.04l54.36-31.02V45.52L304.77,76.54z M348.26,101.35l-32.62,18.61V82.74l10.87-6.2l10.87-6.2
			l10.87-6.2V101.35z"/>
	</g>
</g>
</svg>
