<svg height="512" viewBox="0 0 57 60" width="512" xmlns="http://www.w3.org/2000/svg"><g id="Page-1" fill="none" fill-rule="evenodd"><g id="009---Pruning" fill="rgb(0,0,0)" fill-rule="nonzero" transform="translate(-1 -1)"><path id="Shape" d="m29 33c1.6568542 0 3-1.3431458 3-3s-1.3431458-3-3-3-3 1.3431458-3 3 1.3431458 3 3 3zm0-4c.5522847 0 1 .4477153 1 1s-.4477153 1-1 1-1-.4477153-1-1 .4477153-1 1-1z"/><path id="Shape" d="m1.84 41c1.47250351.2364023 2.88522437.7559847 4.16 1.53-.79 7.62-.95 13.85-1 16.47-.00840497.5336254.19681546 1.0484767.57 1.43.38152332.3731845.89637457.578405 1.43.57h2c1.1045695 0 2-.8954305 2-2 0-1.32.09-3.69.25-6.76.8-1.2 3.39-2 4.91-2.29.3120152-.0557257.5791391-.2560686.72-.54.1426286-.2830476.1426286-.6169524 0-.9-.9188936-2.041294-2.8698338-3.426079-5.1-3.62.4853357-5.6382409 1.2529654-11.2486126 2.3-16.81.7643705.5690438 1.5588562 1.0964755 2.38 1.58 1.861449 1.0580218 3.8375697 1.9001377 5.89 2.51.4783311 1.4403397 1.4074579 2.6885252 2.65 3.56v5.05c-.6321439.5653847-.9954467 1.3719168-1 2.22v15c0 1.6568542 1.3431458 3 3 3h4c1.6568542 0 3-1.3431458 3-3v-15c-.0045533-.8480832-.3678561-1.6546153-1-2.22v-3.86l3.33 1.93c.1690498.8403466.6894959 1.5682433 1.43 2l13 7.5c.4533047.2609431.9669559.3988361 1.49.4 1.0760543.004272 2.0719771-.5680974 2.61-1.5l2-3.46c.3982756-.6894592.5061302-1.5089663.299805-2.2779965-.2063251-.7690301-.7099037-1.4244942-1.399805-1.8220035l-13-7.5c-.7393274-.4209394-1.6226117-.5081774-2.43-.24l-4.33-2.54c-.1287215-1.5021542-.7389899-2.9226068-1.74-4.05.4870673-2.0850755.7353304-4.2187965.74-6.36 0-7.55-3.85-16-9-16-.5522847 0-1 .44771525-1 1v19.07l-8.48-4.9c.29-1 .59-1.94.92-2.89 1.5465571-.443488 3.1721137-.539109 4.76-.28.3149066.0490412.63433-.0549571.86-.28.2250429-.22567.3290412-.5450934.28-.86-.20217-2.0644484-1.4265656-3.88977428-3.26-4.86.27-.52.52-1 .81-1.55.6955671-1.41576901.1759273-3.12837107-1.1890826-3.91891734-1.3650099-.79054628-3.1090766-.38897115-3.9909174.91891734-.22.38-.43.77-.63 1.16-1.24-2.05-4.08-4.88-10.16-4.61-.64581203.02435019-1.24005565.35926345-1.59532972.89912125s-.42778671 1.21811608-.19467028 1.82087875c1.52100149 4.04124548 5.22791477 6.849631 9.53 7.22-.52 1.33-1 2.72-1.48 4.15l-2.7-1.56c-.22999329-.1329611-.50344065-.168941-.76-.1-.25792117.0689564-.47755942.2381858-.61.47-1.42 2.47-.39 5.9 1.89 9.1-1 4.31-1.74 8.7-2.3 12.89-2.41744634.034187-4.59835179 1.4595645-5.6 3.66-.14262859.2830476-.14262859.6169524 0 .9.14239077.2928943.41848969.4981029.74.55zm12.54 7.35c-1.0466404.2717749-2.054657.6749815-3 1.2.06-.83.12-1.71.19-2.62 1.0859243.0811652 2.0958491.5879246 2.81 1.41zm12.12-22.67.1-.07c2.3997415-1.2763936 5.3795831-.4019436 6.7090516 1.9688059 1.3294685 2.3707496.5215323 5.3693088-1.8190516 6.7511941-1.5470054.893164-3.4529946.893164-5 0-1.1842434-.6831866-2.0370789-1.8215052-2.36-3.15-.0888515-.3869772-.1324769-.7829612-.13-1.18.0036128-1.7827089.9561236-3.4286474 2.5-4.32zm10.16 11-2.86-1.6c.9859986-.9366331 1.6804944-2.1381109 2-3.46l2.86 1.65zm-4.66 21.32c0 .5522847-.4477153 1-1 1h-4c-.5522847 0-1-.4477153-1-1v-15c0-.5522847.4477153-1 1-1h4c.5522847 0 1 .4477153 1 1zm-5-18v-3.3c1.303364.3997955 2.696636.3997955 4 0v3.3zm14.76-6.1 13 7.5c.2297442.133628.3968418.3532172.4643886.6102702.0675467.257053.0299853.5304211-.1043886.7597298l-2 3.46c-.2746085.4761364-.8820208.6413883-1.36.37l-13-7.5c-.2314397-.1319512-.4006596-.350799-.4701217-.6079963-.069462-.2571974-.0334233-.53148.1001217-.7620037l2-3.46c.0873533-.1453777.2071402-.268587.35-.36.1494557-.0847023.3182117-.1294743.49-.13.1843565-.0096887.3677968.0318449.53.12zm-8.76-14.9c-.0075811 1.6782734-.1716244 3.3521845-.49 5-1.0594347-.6414209-2.2715948-.9867656-3.51-1-.6775984.0036406-1.3511544.104674-2 .3v-18.12c3.16 1.14 6 7.42 6 13.82zm-12-6.15c-.908734-.0471054-1.8199006-.003557-2.72.13.3-.76.6-1.47.91-2.15.8201721.4419913 1.4603293 1.1564208 1.81 2.02zm-16-9.85c6.9-.32 8.61 3.84 8.94 4.93-.16.34-.31.7-.47 1.05-3.7810526-.07221462-7.13643853-2.4411884-8.47-5.98zm10 7.39c.28-.65.57-1.29.87-1.91v-.09c.47-1 1-2 1.51-2.9.1922271-.32623558.5522312-.51591515.93-.49.3477363-.00969579.6718103.17548934.84.48.1786328.30940108.1786328.69059892 0 1-.48.84-.94 1.71-1.35 2.59-.7718785 1.6302718-1.4594522 3.29914-2.06 5-.0056573.0431487-.0056573.0868513 0 .13-.34 1-.66 1.95-1 2.93l-1.77-1c.62-2.02 1.32-3.94 2.03-5.74zm-6.5 5.47 15.71 9.06c-1.403897 1.317378-2.2032512 3.1548075-2.21 5.08-1.5705661-.5200535-3.0875352-1.189797-4.53-2-2.5681273-1.4852341-4.8205179-3.4590486-6.63-5.81v-.06c-1.74-2.3-2.64-4.59-2.34-6.27zm3.84 10.8c-1.5964757 8.3128994-2.61557833 16.7263435-3.05 25.18-.19 3.27-.29 5.79-.29 7.16h-2c.1732024-11.4201607 1.38824106-22.8006881 3.63-34 .54.56 1.11 1.12 1.71 1.66zm-5.87 11.24c-.1.83-.19 1.65-.28 2.45-.82333409-.4211445-1.68790808-.7562507-2.58-1 .71474647-.8543363 1.74841278-1.3783979 2.86-1.45z"/></g></g></svg>