<svg id="Layer_1" data-name="Layer 1" xmlns="http://www.w3.org/2000/svg" viewBox="0 0 100 100"><defs><style>.cls-1{fill:#00ff8c;}</style></defs><path class="cls-1" d="M50,83.48A24.72,24.72,0,0,1,29,71.81H28.7a6.46,6.46,0,0,1-6.59-6.3,6.28,6.28,0,0,1,3.25-5.43q0-.59,0-1.17s0-.07,0-.11V30c0-.05,0-.1,0-.15.08-3.85,2.85-7.34,7.83-9.83A38.52,38.52,0,0,1,50,16.52,38.52,38.52,0,0,1,66.84,20c5,2.49,7.75,6,7.83,9.82,0,.05,0,.1,0,.16V59q0,.57,0,1.14a6.28,6.28,0,0,1,3.25,5.43,6.46,6.46,0,0,1-6.59,6.3H71A24.72,24.72,0,0,1,50,83.48Z"/><path d="M73,61.06c.07-.73.11-1.47.11-2.21V30c0-3.27-2.51-6.3-7-8.53A36.87,36.87,0,0,0,50,18.07a36.87,36.87,0,0,0-16.15,3.36c-4.46,2.23-6.93,5.26-7,8.53V58.85c0,.74,0,1.48.11,2.21a4.78,4.78,0,0,0-3.32,4.46,4.9,4.9,0,0,0,5,4.74,4.83,4.83,0,0,0,1.15-.13,23.1,23.1,0,0,0,40.3,0,4.83,4.83,0,0,0,1.15.13,4.9,4.9,0,0,0,5-4.74A4.78,4.78,0,0,0,73,61.06ZM28.7,68.74a3.38,3.38,0,0,1-3.51-3.22,3.22,3.22,0,0,1,2-2.91,22.83,22.83,0,0,0,1.91,6.1A2.73,2.73,0,0,1,28.7,68.74Zm40.7-.52c-.22.46-.47.9-.72,1.34a21.54,21.54,0,0,1-37.36,0c-.25-.44-.5-.88-.72-1.34a21.22,21.22,0,0,1-1.88-5.92c-.08-.5-.14-1-.19-1.52s-.06-.79-.07-1.19,0-.52,0-.78h0c0-.26,0-.52,0-.78A21.55,21.55,0,0,1,38.68,40.47a43.19,43.19,0,0,0,22.64,0A21.55,21.55,0,0,1,71.54,58c0,.26,0,.52,0,.78h0c0,.26,0,.52,0,.78s0,.8-.07,1.19-.11,1-.19,1.52A21.22,21.22,0,0,1,69.4,68.22Zm1.9.52a2.73,2.73,0,0,1-.41,0,22.83,22.83,0,0,0,1.91-6.1,3.22,3.22,0,0,1,2,2.91A3.38,3.38,0,0,1,71.3,68.74ZM40.8,53.55l2.07,2.07a2,2,0,0,0,2.86,0,2,2,0,0,0,0-2.85l-2.07-2.08,2.07-2.07a2,2,0,0,0-2.86-2.85L40.8,47.84l-2.07-2.07a2,2,0,0,0-2.85,2.85L38,50.69l-2.07,2.08a2,2,0,0,0,2.85,2.85Zm23.32-7.78a2,2,0,0,0-2.85,0L59.2,47.84l-2.07-2.07a2,2,0,0,0-2.86,2.85l2.07,2.07-2.07,2.08a2,2,0,0,0,0,2.85,2,2,0,0,0,2.86,0l2.07-2.07,2.07,2.07a2,2,0,1,0,2.85-2.85l-2.07-2.08,2.07-2.07A2,2,0,0,0,64.12,45.77ZM60.75,66.13a.6.6,0,0,1-.06-.11l-.17-.29c-.1-.17-.21-.35-.33-.52l0,0A11.46,11.46,0,0,0,53,60.76l-.19,0-.41-.07-.49-.07-.31,0L51,60.48h-.22l-.78,0-.78,0H49l-.62.06-.31,0-.49.07-.41.07-.19,0a11.46,11.46,0,0,0-7.15,4.42l0,0c-.12.17-.23.35-.33.52l-.17.29a.6.6,0,0,1-.06.11l0,.08a7.33,7.33,0,0,0-.8,3.29,7.82,7.82,0,0,0,2.3,5.4.22.22,0,0,0,.07.09,12.19,12.19,0,0,0,6.86,3.38h0l.49.07.18,0,.4,0,.32,0h.29l.63,0,.63,0h.29l.32,0,.4,0,.18,0,.49-.07h0A12.19,12.19,0,0,0,59.21,75a.22.22,0,0,0,.07-.09,7.82,7.82,0,0,0,2.3-5.4,7.33,7.33,0,0,0-.8-3.29Zm-3.24,8.33-.32.26h0A11.34,11.34,0,0,1,52,76.84h0l-.46.07h-.12l-.38,0-.51,0H49.44l-.51,0-.38,0h-.12L48,76.84h0a11.34,11.34,0,0,1-5.13-2.11h0l-.32-.26h0a12.36,12.36,0,0,1,15,0ZM50,64.24a36,36,0,0,0-8.14.9,10.81,10.81,0,0,1,5.86-2.94h.07l.44-.07.54-.06h0l.51,0h1.36l.51,0h0l.54.06.44.07h.07a10.81,10.81,0,0,1,5.86,2.94A36,36,0,0,0,50,64.24Zm-.54-5.75h1.08a1.31,1.31,0,0,0,1-.46,1.33,1.33,0,0,0,.32-.85,1.31,1.31,0,0,0-1.31-1.31H49.46a1.31,1.31,0,0,0-1.31,1.31,1.33,1.33,0,0,0,.32.85A1.31,1.31,0,0,0,49.46,58.49Z"/></svg>