<svg xmlns="http://www.w3.org/2000/svg" width="34" height="34" viewBox="0 0 34 34"><path class="a" d="M-3184.407,389.518a17.019,17.019,0,0,0-17,17,17.019,17.019,0,0,0,17,17,17.019,17.019,0,0,0,17-17A17.019,17.019,0,0,0-3184.407,389.518Zm0,33a16.017,16.017,0,0,1-16-16,16.017,16.017,0,0,1,16-16,16.017,16.017,0,0,1,16,16A16.017,16.017,0,0,1-3184.407,422.517ZM-3186.7,411.1a3.8,3.8,0,0,0-.938-1.413,3.016,3.016,0,0,0-.576-.439h0l0,0h-.007a2.3,2.3,0,0,0-.957.03,2.55,2.55,0,0,0-.894.426,3.776,3.776,0,0,0-.829.862,6.455,6.455,0,0,0-.681,1.253,6.046,6.046,0,0,1-.746,1.308,5.208,5.208,0,0,1-.737.794,3.477,3.477,0,0,1-.684.472.789.789,0,0,1-.37.117l-.023.084a11.267,11.267,0,0,0,1.176.362,8.371,8.371,0,0,0,1.1.194q.182.02.359.03c.118.006.235.01.349.01a5.106,5.106,0,0,0,1.179-.131,4.016,4.016,0,0,0,1.021-.39,3.953,3.953,0,0,0,1.422-1.36,6.584,6.584,0,0,0,.847-2.181l0-.006v-.007l0-.006Zm12.012-13.221a.082.082,0,0,0-.025-.016.113.113,0,0,0-.033-.005,8.489,8.489,0,0,0-1.844,1.135c-.961.679-2.17,1.58-3.328,2.477-1.517,1.175-2.89,2.29-4.02,3.26a31.473,31.473,0,0,0-2.555,2.389,3.073,3.073,0,0,0-.3.378c-.084.128-.162.263-.256.426-.053.091-.109.189-.174.3s-.137.228-.222.363l-.022.035.016.012.017.012a4.039,4.039,0,0,1,.66.593,4.118,4.118,0,0,1,.652.983l.01.021.011.022.02-.012.02-.012c.173-.1.325-.179.463-.249s.263-.129.379-.184c.165-.079.307-.146.441-.221a2.569,2.569,0,0,0,.391-.269,31.716,31.716,0,0,0,2.481-2.462c1.013-1.093,2.183-2.427,3.42-3.9.918-1.1,1.866-2.269,2.588-3.209a9.183,9.183,0,0,0,1.224-1.8.092.092,0,0,0,0-.031A.073.073,0,0,0-3174.686,397.875Z" transform="translate(3201.407 -389.518)"/></svg>