<svg id="Layer_1" data-name="Layer 1" xmlns="http://www.w3.org/2000/svg" viewBox="0 0 60 60"><defs><style>.cls-1{fill:#001c32;}.cls-2{fill:#fafaff;}</style></defs><rect class="cls-1" width="60" height="60"/><path class="cls-2" d="M14.8,30A15.22,15.22,0,0,1,26.47,15.22V8a22.3,22.3,0,0,0,0,44V44.78A15.22,15.22,0,0,1,14.8,30Z"/><path class="cls-2" d="M33.53,8v7.24A15.24,15.24,0,0,1,44.78,26.47H37.31a8.15,8.15,0,0,0-3.78-3.78,8.13,8.13,0,1,0,0,14.62,8.15,8.15,0,0,0,3.78-3.78h7.47A15.24,15.24,0,0,1,33.53,44.78V52a22.3,22.3,0,0,0,0-44ZM30,33.52A3.53,3.53,0,1,1,33.53,30,3.53,3.53,0,0,1,30,33.52Z"/></svg>