<svg xmlns="http://www.w3.org/2000/svg" width="40" height="40" viewBox="0 0 40 40"><path d="M-336.23,19a2.256,2.256,0,0,0-2.16,2.351,2.271,2.271,0,0,0,2.16,2.351,2.256,2.256,0,0,0,2.16-2.351A2.256,2.256,0,0,0-336.23,19Zm-7.73,0a2.256,2.256,0,0,0-2.16,2.351,2.271,2.271,0,0,0,2.16,2.351,2.257,2.257,0,0,0,2.16-2.351A2.243,2.243,0,0,0-343.96,19ZM-340,0a20,20,0,0,0-20,20,20,20,0,0,0,20,20,20,20,0,0,0,20-20A20,20,0,0,0-340,0Zm5.888,28.9s-.762-.911-1.4-1.716a6.682,6.682,0,0,0,3.833-2.52,12.1,12.1,0,0,1-2.436,1.25,13.94,13.94,0,0,1-3.071.911,14.83,14.83,0,0,1-5.485-.021,17.751,17.751,0,0,1-3.114-.911,12.341,12.341,0,0,1-1.546-.72c-.064-.042-.127-.063-.191-.106A.291.291,0,0,1-347.6,25c-.381-.212-.593-.36-.593-.36a6.589,6.589,0,0,0,3.706,2.5c-.635.8-1.419,1.758-1.419,1.758-4.68-.148-6.46-3.219-6.46-3.219a28.359,28.359,0,0,1,3.05-12.347,10.472,10.472,0,0,1,5.951-2.224l.212.254a14.289,14.289,0,0,0-5.57,2.774s.466-.254,1.25-.614a15.909,15.909,0,0,1,4.808-1.334,2.085,2.085,0,0,1,.36-.042,17.923,17.923,0,0,1,4.278-.042,17.259,17.259,0,0,1,6.375,2.033,14.1,14.1,0,0,0-5.273-2.69l.3-.339a10.473,10.473,0,0,1,5.951,2.224,28.362,28.362,0,0,1,3.05,12.347A7.743,7.743,0,0,1-334.112,28.9Z" transform="translate(360)"/></svg>