<svg xmlns="http://www.w3.org/2000/svg" width="36" height="36" viewBox="0 0 36 36"><defs><style>.a{fill:#c8c8d4;}</style></defs><g transform="translate(-1847.553 -521.581)"><path class="a" d="M1865.553,557.581a18,18,0,1,1,18-18A18.02,18.02,0,0,1,1865.553,557.581Zm0-35a17,17,0,1,0,17,17A17.019,17.019,0,0,0,1865.553,522.581Z"/><path class="a" d="M1869.09,539.558l6.968,5.942V533.66Zm-14.036-5.894V545.5l6.966-5.9Zm13.009,6.763-2.225,1.884a.5.5,0,0,1-.323.118.5.5,0,0,1-.325-.119l-2.146-1.831-.253-.216-6.873,5.818H1875.2l-6.88-5.869Zm-4.884-1.147.615.524,1.722,1.468,1.8-1.524.616-.521.387-.327,6.874-5.819h-19.282l6.882,5.87Z"/></g></svg>