<svg id="Layer_1" data-name="Layer 1" xmlns="http://www.w3.org/2000/svg" viewBox="0 0 48 48"><path class="cls-1" d="M24,0A24,24,0,1,0,48,24,24,24,0,0,0,24,0Zm0,47A23,23,0,1,1,47,24,23,23,0,0,1,24,47Z"/><polygon class="cls-1" points="24 28.94 28.64 31.5 27.75 26.07 31.5 22.23 26.32 21.44 24 16.5 21.68 21.44 16.5 22.23 20.25 26.07 19.36 31.5 24 28.94"/><path class="cls-1" d="M31.45,12.7l-.56.84A12.49,12.49,0,0,1,24,36.46v-2L20,37l4,2.5v-2A13.5,13.5,0,0,0,31.45,12.7Z"/><path class="cls-1" d="M11.5,24A12.52,12.52,0,0,1,24,11.46v2L28,11l-4-2.5v2a13.51,13.51,0,0,0-7.95,24.42l.59-.81A12.56,12.56,0,0,1,11.5,24Z"/></svg>