<svg id="Layer_1" data-name="Layer 1" xmlns="http://www.w3.org/2000/svg" viewBox="0 0 32 32"><defs><style>.cls-1{fill:#c8c8d4;}</style></defs><path class="cls-1" d="M16,0A16,16,0,1,0,32,16,16,16,0,0,0,16,0Zm0,31A15,15,0,1,1,31,16,15,15,0,0,1,16,31Z"/><polygon class="cls-1" points="7 22 7 22 7 22 7 22"/><polygon class="cls-1" points="25 21.33 25 10.67 19 16 25 21.33"/><polygon class="cls-1" points="7 10 7 10 7 10 7 10"/><polygon class="cls-1" points="25 10 25 10 25 10 25 10"/><polygon class="cls-1" points="16 18.67 13.75 16.67 7.76 22 24.25 22 18.25 16.67 16 18.67"/><polygon class="cls-1" points="7 10.67 7 21.33 13 16 7 10.67"/><polygon class="cls-1" points="24.25 10 7.75 10 16 17.33 24.25 10"/></svg>