<svg id="Layer_1" data-name="Layer 1" xmlns="http://www.w3.org/2000/svg" viewBox="0 0 48 48"><path class="cls-1" d="M30.62,16.15s0-.1-.05-.15c1.65.15,2,.76,2.27,1.4A2.39,2.39,0,0,0,34,18.72l.38-.85c-.39-.17-.53-.47-.73-.88-.46-.94-1-1.73-3-1.91l1.22-2.54A1,1,0,0,0,31,11H17a1,1,0,0,0-.91,1.54l1.21,2.54c-2,.18-2.55,1-3,1.91-.2.41-.34.71-.73.88l.38.85a2.39,2.39,0,0,0,1.18-1.32c.32-.64.62-1.25,2.27-1.4,0,.05,0,.1-.05.15L11.81,26.42a6.25,6.25,0,0,0-.81,3C11,33.62,15.27,37,20.53,37h6.94C32.73,37,37,33.62,37,29.46a6.25,6.25,0,0,0-.81-3ZM24,31.78a6.5,6.5,0,1,1,6.5-6.5A6.5,6.5,0,0,1,24,31.78Z"/><polygon class="cls-1" points="25.39 23.41 24 20.45 22.61 23.41 19.5 23.88 21.75 26.19 21.22 29.45 24 27.91 26.78 29.45 26.25 26.19 28.5 23.88 25.39 23.41"/><path class="cls-1" d="M24,0A24,24,0,1,0,48,24,24,24,0,0,0,24,0Zm0,47A23,23,0,1,1,47,24,23,23,0,0,1,24,47Z"/></svg>