<svg id="Layer_1" data-name="Layer 1" xmlns="http://www.w3.org/2000/svg" viewBox="0 0 48 48"><path class="cls-1" d="M24,0A24,24,0,1,0,48,24,24,24,0,0,0,24,0Zm0,47A23,23,0,1,1,47,24,23,23,0,0,1,24,47Z"/><polygon class="cls-1" points="25.84 20.03 19.3 20.03 19.3 22.85 22.16 22.85 22.16 34.21 18.5 34.21 18.5 37.03 29.5 37.03 29.5 34.19 25.84 34.19 25.84 20.03"/><path class="cls-1" d="M21.83,16.14a3,3,0,0,0,1,.65A3.13,3.13,0,0,0,23.9,17a3,3,0,0,0,2.84-1.79A2.89,2.89,0,0,0,27,13.5a2.93,2.93,0,0,0-.8-1.56,3,3,0,0,0-3.28-.69A3,3,0,0,0,21,14a3,3,0,0,0,.83,2.1Z"/></svg>