<svg xmlns="http://www.w3.org/2000/svg" width="35.999" height="36" viewBox="0 0 35.999 36"><defs><style>.a{fill:#c8c8d4;}.b{fill:#fafaff;}</style></defs><g transform="translate(-665.04 -250.146)"><path class="a" d="M683.04,286.146a18,18,0,1,1,18-18A18.02,18.02,0,0,1,683.04,286.146Zm0-35a17,17,0,1,0,17,17A17.018,17.018,0,0,0,683.04,251.146Z"/><path class="a" d="M689.039,267.563a1.726,1.726,0,0,0-1.712-1.743h-8.574a1.729,1.729,0,0,0-1.714,1.743V275.4a1.73,1.73,0,0,0,1.714,1.742h8.571a1.728,1.728,0,0,0,1.714-1.742h0Z"/><path class="a" d="M686.925,265.244h-1v-2.617a2.889,2.889,0,1,0-5.773-.215c0,.066,0,.133,0,.2v2.629h-1v-2.614c0-.071,0-.16,0-.248a3.889,3.889,0,1,1,7.773.266Z"/><rect class="b" width="1" height="3.485" transform="translate(682.54 270.939)"/></g></svg>