<svg xmlns="http://www.w3.org/2000/svg" width="40" height="39.012" viewBox="0 0 40 39.012"><defs><style>.a{fill-rule:evenodd;}</style></defs><path class="a" d="M20,1.036a20,20,0,0,0-6.323,38.978c1,.185,1.366-.434,1.366-.962,0-.476-.018-2.052-.027-3.724-5.564,1.21-6.738-2.36-6.738-2.36a5.3,5.3,0,0,0-2.221-2.926c-1.815-1.241.137-1.216.137-1.216A4.2,4.2,0,0,1,9.26,30.887c1.784,3.057,4.679,2.173,5.82,1.662a4.258,4.258,0,0,1,1.27-2.674c-4.442-.506-9.112-2.221-9.112-9.884A7.74,7.74,0,0,1,9.3,14.623,7.184,7.184,0,0,1,9.493,9.33s1.68-.537,5.5,2.05a18.966,18.966,0,0,1,10.016,0C28.828,8.793,30.5,9.33,30.5,9.33a7.177,7.177,0,0,1,.2,5.293,7.725,7.725,0,0,1,2.058,5.368c0,7.682-4.679,9.373-9.132,9.868a4.78,4.78,0,0,1,1.356,3.7c0,2.676-.023,4.83-.023,5.488,0,.532.36,1.156,1.374.96A20,20,0,0,0,20,1.036Z" transform="translate(0 -1.036)"/><path d="M18.17,72.338c-.047.106-.214.138-.365.065s-.241-.214-.191-.32.213-.139.367-.067.243.215.19.322Zm-.262-.194" transform="translate(-10.145 -43.622)"/><path d="M20.209,74.288c-.1.094-.3.05-.435-.1a.326.326,0,0,1-.062-.443c.1-.094.3-.05.437.1s.167.348.061.443Zm-.2-.218" transform="translate(-11.797 -44.663)"/><path d="M22.163,76.981c-.131.091-.345.006-.477-.184s-.13-.417,0-.508.342-.009.476.179.13.42,0,.513Zm0,0" transform="translate(-12.962 -46.203)"/><path d="M24.651,79.8c-.117.129-.366.094-.548-.082a.41.41,0,0,1-.121-.545c.119-.129.369-.093.552.081s.241.417.117.545Zm0,0" transform="translate(-14.364 -48.048)"/><path d="M28.161,81.734c-.052.167-.291.243-.533.172s-.4-.269-.351-.437.291-.247.534-.171.4.267.349.437Zm0,0" transform="translate(-16.377 -49.633)"/><path d="M32.22,82.241c.006.176-.2.322-.452.325s-.461-.136-.464-.31.2-.322.455-.326.461.136.461.311Zm0,0" transform="translate(-18.801 -50.012)"/><path d="M36.038,81.684c.03.171-.146.348-.4.394s-.477-.061-.508-.231.148-.352.4-.4.478.059.51.234Zm0,0" transform="translate(-21.098 -49.731)"/></svg>