<svg xmlns="http://www.w3.org/2000/svg" width="40" height="40" viewBox="0 0 40 40"><path d="M20,0A20,20,0,1,0,40,20,20,20,0,0,0,20,0ZM32.15,10.484l-1.94,1.86a.566.566,0,0,0-.215.544V26.555a.566.566,0,0,0,.215.544l1.895,1.86v.408h-9.53v-.408l1.962-1.905c.193-.193.193-.249.193-.544V15.463L19.274,29.322h-.738L12.183,15.463v9.288a1.283,1.283,0,0,0,.352,1.066l2.552,3.1v.408H7.85v-.408l2.553-3.1a1.236,1.236,0,0,0,.329-1.066V14.011a.942.942,0,0,0-.306-.794L8.156,10.484v-.408H15.2l5.446,11.942,4.787-11.942H32.15Z"/></svg>