<svg xmlns="http://www.w3.org/2000/svg" width="40" height="40" viewBox="0 0 40 40"><defs><style>.a{fill-rule:evenodd;}</style></defs><path class="a" d="M20,0A20,20,0,1,0,40,20,20,20,0,0,0,20,0Zm9.27,13.6c-.3,3.162-1.6,10.837-2.266,14.379-.28,1.5-.832,2-1.367,2.05-1.162.107-2.043-.768-3.168-1.505-1.76-1.154-2.754-1.872-4.463-3-1.974-1.3-.694-2.016.431-3.185.295-.306,5.412-4.961,5.511-5.383a.409.409,0,0,0-.093-.354.462.462,0,0,0-.414-.04q-.265.06-8.436,5.576a3.794,3.794,0,0,1-2.169.8,14.257,14.257,0,0,1-3.109-.736c-1.252-.407-2.248-.622-2.162-1.314q.068-.541,1.488-1.1,8.746-3.811,11.664-5.024c5.554-2.31,6.708-2.712,7.46-2.725a1.318,1.318,0,0,1,.775.233.842.842,0,0,1,.284.542A3.513,3.513,0,0,1,29.27,13.6Z"/></svg>