<svg xmlns="http://www.w3.org/2000/svg" width="34" height="34" viewBox="0 0 34 34"><path class="a" d="M-3184.407,542.956a17.02,17.02,0,0,0-17,17,17.019,17.019,0,0,0,17,17,17.019,17.019,0,0,0,17-17A17.02,17.02,0,0,0-3184.407,542.956Zm0,33.029a16.047,16.047,0,0,1-16.029-16.029,16.047,16.047,0,0,1,16.029-16.028,16.047,16.047,0,0,1,16.029,16.028A16.047,16.047,0,0,1-3184.407,575.985Zm-7.381-18.873a2.641,2.641,0,0,0,2.64-2.641,2.64,2.64,0,0,0-2.64-2.64,2.639,2.639,0,0,0-2.64,2.64A2.641,2.641,0,0,0-3191.788,557.112Zm3.645.227.007.039,0,.015a3.81,3.81,0,0,0,3.725,3.025,3.808,3.808,0,0,0,3.669-2.791l.018-.065c.028-.108.05-.217.068-.328l.008-.043a3.818,3.818,0,0,0,.044-.58,3.807,3.807,0,0,0-3.807-3.806,3.806,3.806,0,0,0-3.8,3.806,3.871,3.871,0,0,0,.019.389Q-3188.176,557.172-3188.143,557.339Zm11.117-.227a2.641,2.641,0,0,0,2.64-2.641,2.64,2.64,0,0,0-2.64-2.64,2.64,2.64,0,0,0-2.64,2.64A2.642,2.642,0,0,0-3177.026,557.112Zm-9.975,4.593a5.3,5.3,0,0,0-4.787-3.486,5.4,5.4,0,0,0-4.973,3.993,6.865,6.865,0,0,0,4.973,2.128,6.87,6.87,0,0,0,1.284-.122A8.434,8.434,0,0,1-3187,561.705Zm9.137,4.569-.015-.028a8.532,8.532,0,0,0-2.029-2.541,7.42,7.42,0,0,0-1.615-1.041,6.733,6.733,0,0,0-2.884-.649,6.754,6.754,0,0,0-2.884.649,7.414,7.414,0,0,0-1.614,1.041c-.127.107-.252.217-.373.333a8.954,8.954,0,0,0-2.3,3.733l.1.1a9.9,9.9,0,0,0,4.813,2.706l.01,0c.067.016.135.031.2.045l.041.009c.057.012.115.022.172.033l.074.014.143.025.1.017.113.016.136.019.085.01.165.019.063.006.188.016.042,0,.211.013h.01c.165.008.33.012.5.012.248,0,.5-.01.742-.027l.017,0,.228-.02.023,0c.077-.009.154-.017.231-.027l.018,0c.076-.01.152-.02.228-.032l.021,0,.232-.038.015,0,.23-.044.016,0c.078-.016.157-.033.235-.051l.009,0c.08-.018.159-.037.238-.058h0a9.93,9.93,0,0,0,1.3-.434,9.887,9.887,0,0,0,3.385-2.318c-.034-.1-.069-.21-.106-.313A9.385,9.385,0,0,0-3177.864,566.274Zm.838-8.055a5.3,5.3,0,0,0-4.786,3.486,8.434,8.434,0,0,1,3.5,2.513,6.86,6.86,0,0,0,1.283.122,6.867,6.867,0,0,0,4.974-2.128A5.4,5.4,0,0,0-3177.026,558.219Z" transform="translate(3201.407 -542.956)"/></svg>