<svg xmlns="http://www.w3.org/2000/svg" width="34.088" height="34.089" viewBox="0 0 34.088 34.089"><defs><style>.a{fill:#fafaff;}</style></defs><path class="a" d="M-268.677,84.463a9.386,9.386,0,0,1,1.7-5.4A10.883,10.883,0,0,0-275.3,89.641a10.881,10.881,0,0,0,10.881,10.881,10.883,10.883,0,0,0,10.576-8.327,9.386,9.386,0,0,1-5.4,1.7A9.432,9.432,0,0,1-268.677,84.463Zm4.254-11.866a17.063,17.063,0,0,0-17.044,17.044,17.064,17.064,0,0,0,17.044,17.045,17.064,17.064,0,0,0,17.044-17.045A17.063,17.063,0,0,0-264.423,72.6Zm0,33.089a16.063,16.063,0,0,1-16.044-16.045A16.062,16.062,0,0,1-264.423,73.6a16.062,16.062,0,0,1,16.044,16.044A16.063,16.063,0,0,1-264.423,105.686Z" transform="translate(281.467 -72.597)"/></svg>