<svg id="Layer_1" data-name="Layer 1" xmlns="http://www.w3.org/2000/svg" viewBox="0 0 378.87 63.55"><defs><style>.cls-1{fill:#001c32;}.cls-2{fill:#ff512f;}.cls-3{fill:#317aff;}.cls-4{fill:#91919d;}</style></defs><path class="cls-1" d="M105.8,25a2.29,2.29,0,0,1,2.25-2.25h.52A2.49,2.49,0,0,1,110.7,24l14.4,21.65L139.5,24a2.44,2.44,0,0,1,2.13-1.21h.52A2.28,2.28,0,0,1,144.39,25V61.24a2.3,2.3,0,0,1-2.24,2.31,2.36,2.36,0,0,1-2.31-2.31V31.18l-12.9,19a2.22,2.22,0,0,1-1.9,1.15,2.31,2.31,0,0,1-2-1.15L110.24,31.24V61.3a2.22,2.22,0,1,1-4.44,0Z"/><path class="cls-1" d="M167.72,25a2.28,2.28,0,1,1,4.55,0V61.24a2.28,2.28,0,1,1-4.55,0Z"/><path class="cls-1" d="M195.6,25a2.28,2.28,0,0,1,2.24-2.25h.64a2.79,2.79,0,0,1,2.3,1.32l24.48,31.22V24.9a2.22,2.22,0,1,1,4.43,0V61.3a2,2,0,0,1-2.07,2.13h-.23A3.1,3.1,0,0,1,225,62.05l-25-32V61.3a2.22,2.22,0,1,1-4.43,0Z"/><path class="cls-1" d="M253,25a2.28,2.28,0,1,1,4.55,0V61.24a2.28,2.28,0,1,1-4.55,0Z"/><path class="cls-1" d="M280.9,25a2.28,2.28,0,0,1,2.24-2.25h.52A2.49,2.49,0,0,1,285.79,24l14.4,21.65L314.59,24a2.44,2.44,0,0,1,2.13-1.21h.52A2.29,2.29,0,0,1,319.49,25V61.24a2.31,2.31,0,0,1-2.25,2.31,2.35,2.35,0,0,1-2.3-2.31V31.18L302,50.13a2.21,2.21,0,0,1-1.9,1.15,2.3,2.3,0,0,1-1.95-1.15L285.33,31.24V61.3a2.22,2.22,0,1,1-4.43,0Z"/><path class="cls-1" d="M339.93,60.26,356.29,24.5a3,3,0,0,1,2.88-2h.23a2.9,2.9,0,0,1,2.82,2l16.36,35.71a3.09,3.09,0,0,1,.29,1.15,2.19,2.19,0,0,1-2.19,2.19,2.5,2.5,0,0,1-2.25-1.67l-4.2-9.28H348.11L343.91,62a2.29,2.29,0,0,1-2.19,1.56,2.06,2.06,0,0,1-2.07-2.08A2.62,2.62,0,0,1,339.93,60.26Zm28.51-11.8-9.27-20.62L349.9,48.46Z"/><polygon class="cls-1" points="49.4 14.15 41.99 46.91 45.97 63.55 53.38 30.78 49.4 14.15"/><polygon class="cls-1" points="34.16 14.15 34.16 14.15 34.16 14.15 34.16 14.15"/><polygon class="cls-1" points="28.34 5.64 19.66 44.05 22.98 63.55 31.67 25.14 28.34 5.64"/><polygon class="cls-2" points="14.37 0 13.1 5.64 13.1 5.64 13.1 5.64 0 63.55 15.24 63.55 19.66 44.05 28.34 5.64 14.37 0"/><polygon class="cls-3" points="35.43 8.51 34.16 14.15 34.16 14.15 31.67 25.14 22.98 63.55 38.23 63.55 41.99 46.91 49.4 14.15 35.43 8.51"/><polygon class="cls-4" points="56.49 17.01 53.38 30.78 45.97 63.55 61.21 63.55 70.46 22.65 56.49 17.01"/></svg>