<svg xmlns="http://www.w3.org/2000/svg" width="34" height="34" viewBox="0 0 34 34"><g transform="translate(-150 -133)"><path class="a" d="M-3184.407,121.648a17.019,17.019,0,0,0-17,17,17.019,17.019,0,0,0,17,17,17.019,17.019,0,0,0,17-17A17.019,17.019,0,0,0-3184.407,121.648Zm0,33a16.017,16.017,0,0,1-16-16,16.017,16.017,0,0,1,16-16,16.017,16.017,0,0,1,16,16A16.017,16.017,0,0,1-3184.407,154.647Zm-9.6-19.141h19.205v-3.071h-19.205Zm0,9.356h19.205v-5.528h-19.205Z" transform="translate(3351.407 11.352)"/></g></svg>