<svg xmlns="http://www.w3.org/2000/svg" width="24" height="24" viewBox="0 0 24 24"><defs><style>.a{fill:#c8c8d4;}</style></defs><path class="a" d="M1043.765,971.205l-2.445.462a.505.505,0,0,0-.386.337,9.141,9.141,0,0,1-.508,1.221.5.5,0,0,0,.033.512l1.409,2.063a.5.5,0,0,1-.06.641l-1.125,1.123-1.125,1.123a.506.506,0,0,1-.642.06l-2.057-1.4a.506.506,0,0,0-.514-.033,9.177,9.177,0,0,1-1.279.531.5.5,0,0,0-.339.385l-.464,2.453a.5.5,0,0,1-.5.411h-3.186a.5.5,0,0,1-.5-.411l-.465-2.453a.5.5,0,0,0-.338-.385,9.179,9.179,0,0,1-1.279-.531.506.506,0,0,0-.513.033l-2.057,1.4a.506.506,0,0,1-.642-.06l-1.125-1.123-1.125-1.123a.5.5,0,0,1-.06-.641l1.409-2.063a.5.5,0,0,0,.033-.512,9.173,9.173,0,0,1-.508-1.221.505.505,0,0,0-.385-.337l-2.445-.462a.5.5,0,0,1-.411-.5v-3.176a.5.5,0,0,1,.411-.5l2.424-.458a.5.5,0,0,0,.386-.338,9.138,9.138,0,0,1,.533-1.293.5.5,0,0,0-.033-.512l-1.4-2.056a.5.5,0,0,1,.06-.641l1.124-1.123,1.125-1.123a.505.505,0,0,1,.642-.06l2.055,1.4a.506.506,0,0,0,.513.033,9.187,9.187,0,0,1,1.273-.528.5.5,0,0,0,.339-.385l.464-2.451a.5.5,0,0,1,.5-.411h3.186a.5.5,0,0,1,.5.411l.464,2.451a.5.5,0,0,0,.339.385,9.189,9.189,0,0,1,1.273.528.506.506,0,0,0,.513-.033l2.055-1.4a.505.505,0,0,1,.641.06l1.125,1.123,1.124,1.123a.5.5,0,0,1,.06.641l-1.4,2.056a.5.5,0,0,0-.033.512,9.137,9.137,0,0,1,.533,1.293.5.5,0,0,0,.386.338l2.423.458a.5.5,0,0,1,.411.5v3.176A.5.5,0,0,1,1043.765,971.205Zm-11.591-7.832a5.718,5.718,0,1,0,5.727,5.719A5.722,5.722,0,0,0,1032.174,963.373Z" transform="translate(-1020.176 -957.092)"/></svg>