<svg id="Layer_1" enable-background="new 0 0 512.023 512.023" height="512" viewBox="0 0 512.023 512.023" width="512" xmlns="http://www.w3.org/2000/svg"><g><g><path d="m15.01 512.005c-3.839 0-7.677-1.464-10.606-4.394-5.858-5.857-5.858-15.355 0-21.213l27.27-27.27c5.858-5.858 15.355-5.858 21.213 0 5.858 5.857 5.858 15.355 0 21.213l-27.27 27.27c-2.93 2.929-6.769 4.394-10.607 4.394z" fill="#00429d"/></g><path d="m4.671 507.854c2.894 2.76 6.612 4.151 10.338 4.151 3.838 0 7.678-1.465 10.606-4.394l27.27-27.27c5.772-5.771 5.844-15.07.242-20.945z" fill="#00347b"/><g><g><path d="m3.396 405.314c2.193-5.327 5.449-10.315 9.77-14.636l10.673-10.673 20.277-.659 1.021-20.639 21.106-21.106 15.915-2.17 5.106-18.851 21.617-21.617s25.706-16.209 31.563-10.35l86.974 86.974c5.858 5.857-10.605 31.818-10.605 31.818l-21.277 21.277-18.782 2.154-2.409 19.038-21.064 21.064-16.846.217-4.537 21.166-10.546 10.546c-3.963 3.963-8.486 7.03-13.318 9.203-5.864 2.635-111.349-86.453-104.638-102.756z" fill="#7dd5f4"/></g></g><path d="m184.179 328.346-134.362 134.362c26.607 24.408 55.241 46.698 58.218 45.36 4.832-2.173 9.356-5.24 13.318-9.203l10.546-10.546 4.537-21.166 16.846-.217 21.064-21.064 2.409-19.038 18.782-2.154 21.277-21.277s16.463-25.961 10.605-31.818z" fill="#4793ff"/><path d="m115.899 304.632h30v152.999h-30z" fill="#4793ff" transform="matrix(.707 -.707 .707 .707 -231.162 204.19)"/><path d="m140.445 284.612c-5.857-5.859-15.354-5.857-21.213 0l-10.603 10.604 108.187 108.187 10.603-10.604c5.858-5.857 5.858-15.355 0-21.213z" fill="#4793ff"/><path d="m4.472 402.931c-7.516 15.599-5.52 34.659 5.99 48.416l50.227 50.227c8.321 6.961 18.58 10.451 28.846 10.451 6.704 0 13.404-1.495 19.566-4.464z" fill="#4793ff"/><path d="m73.473 347.059h30v153h-30z" fill="#4793ff" transform="matrix(.707 -.707 .707 .707 -273.588 186.617)"/><g><path d="m497.009 345.762c-3.77 0-7.542-1.411-10.457-4.247-33.042-32.138-76.622-49.836-122.714-49.836-37.736 0-75.163 12.444-105.387 35.04-6.634 4.961-16.034 3.604-20.995-3.032-4.96-6.635-3.603-16.034 3.032-20.995 35.375-26.447 79.181-41.013 123.35-41.013 53.948 0 104.957 20.716 143.63 58.33 5.939 5.776 6.07 15.272.295 21.211-2.941 3.023-6.846 4.542-10.754 4.542z" fill="#ca75f5"/></g><g><path d="m183.234 259.667c-3.089 0-6.204-.95-8.882-2.922-6.671-4.912-8.097-14.302-3.185-20.973 12.167-16.523 18.597-36.104 18.597-56.624 0-40.942-26.05-77.287-64.822-90.438-7.845-2.661-12.048-11.178-9.387-19.023 2.662-7.846 11.178-12.049 19.023-9.387 50.952 17.283 85.186 65.044 85.186 118.849 0 26.966-8.451 52.697-24.44 74.411-2.94 3.993-7.485 6.107-12.09 6.107z" fill="#fdbf00"/></g><g><path d="m289.679 184.174c-3.839 0-7.678-1.465-10.606-4.394-5.858-5.857-5.858-15.355 0-21.213 14.296-14.296 33.984-17.852 51.356-20.989 14.306-2.584 27.819-5.024 35.475-12.68 7.654-7.655 10.096-21.168 12.68-35.475 3.137-17.371 6.693-37.061 20.989-51.356 17.602-17.601 40.871-23.291 63.376-28.793 10.234-2.503 19.901-4.867 28.639-8.255 7.726-2.997 16.413.838 19.408 8.563 2.995 7.724-.839 16.413-8.563 19.408-10.56 4.095-21.642 6.805-32.359 9.425-19.347 4.731-37.622 9.199-49.288 20.865-7.655 7.656-10.097 21.169-12.681 35.476-3.137 17.371-6.693 37.06-20.988 51.355-14.296 14.296-33.984 17.852-51.356 20.989-14.306 2.584-27.819 5.024-35.475 12.68-2.93 2.929-6.769 4.394-10.607 4.394z" fill="#ff8856"/></g><g clip-rule="evenodd" fill-rule="evenodd"><path d="m334.01 57.005c8.262 0 15-6.738 15-15 0-8.261-6.738-15-15-15s-15 6.739-15 15 6.738 15 15 15z" fill="#bee75e"/><path d="m48.488 214.943c8.262 0 15-6.738 15-15s-6.738-15-15-15-15 6.738-15 15 6.738 15 15 15z" fill="#d98ff8"/><path d="m33.01 53.005c8.262 0 15-6.738 15-15s-6.739-15-15-15c-8.262 0-15 6.738-15 15 0 8.261 6.738 15 15 15z" fill="#7dd5f4"/><path d="m365.01 371.004c8.262 0 15-6.738 15-15s-6.738-15-15-15-15 6.738-15 15 6.738 15 15 15z" fill="#ff8856"/><path d="m452.01 508.004c8.262 0 15-6.738 15-15s-6.738-15-15-15-15 6.738-15 15 6.738 15 15 15z" fill="#4793ff"/><path d="m249.01 492.005c8.262 0 15-6.738 15-15s-6.739-15-15-15c-8.262 0-15 6.738-15 15 0 8.261 6.738 15 15 15z" fill="#ff435b"/></g><g><path d="m259.612 97.471c-.415 0-.831-.018-1.252-.052-8.256-.683-14.396-7.929-13.713-16.185 1.678-20.303-3.323-41.01-14.082-58.307-4.375-7.035-2.22-16.284 4.814-20.66 7.033-4.376 16.283-2.22 20.659 4.814 14.139 22.731 20.711 49.943 18.506 76.623-.647 7.837-7.208 13.767-14.932 13.767z" fill="#d98ff8"/></g><g><path d="m379.858 218.509c-6.28 0-12.133-3.975-14.229-10.26-2.619-7.859 1.628-16.354 9.486-18.975 31.399-10.466 65.267-13.213 97.949-7.944 8.178 1.319 13.739 9.019 12.42 17.197s-9.017 13.745-17.197 12.42c-27.921-4.505-56.858-2.156-83.684 6.788-1.573.525-3.172.774-4.745.774z" fill="#ff435b"/></g><path clip-rule="evenodd" d="m267.244 260.43c8.262 0 15-6.738 15-15 0-8.261-6.738-15-15-15s-15 6.738-15 15 6.738 15 15 15z" fill="#7dd5f4" fill-rule="evenodd"/><path clip-rule="evenodd" d="m478.01 110.005c8.262 0 15-6.739 15-15s-6.738-15-15-15-15 6.739-15 15 6.738 15 15 15z" fill="#00cb75" fill-rule="evenodd"/><g fill="#ff435b"><path d="m347.718 164.807c13.979-2.982 28.31-7.608 39.398-18.696 11.087-11.088 15.713-25.419 18.695-39.397z"/><path d="m507.868 4.657-32.438 32.438c9.022-2.24 18.193-4.689 27.003-8.106 7.724-2.995 11.558-11.685 8.563-19.408-.734-1.889-1.811-3.542-3.128-4.924z"/></g><path clip-rule="evenodd" d="m277.764 234.761-21.189 21.189c2.723 2.761 6.5 4.48 10.669 4.48 8.262 0 15-6.739 15-15.001 0-4.168-1.719-7.945-4.48-10.668z" fill="#4793ff" fill-rule="evenodd"/><path d="m184.179 328.346-21.21 21.21 53.846 53.846 10.603-10.604c5.858-5.857 5.858-15.355 0-21.213z" fill="#525cdd"/><path d="m143.069 370.227h30v76.15h-30z" fill="#525cdd" transform="matrix(.707 -.707 .707 .707 -242.416 231.361)"/><path d="m100.643 412.654h30v76.15h-30z" fill="#525cdd" transform="matrix(.707 -.707 .707 .707 -284.843 213.788)"/><path d="m35.82 476.705 24.868 24.868c8.321 6.961 18.58 10.451 28.846 10.451 6.704 0 13.404-1.495 19.566-4.464l-52.067-52.067z" fill="#525cdd"/></g></svg>