<svg xmlns="http://www.w3.org/2000/svg" width="34" height="34" viewBox="0 0 34 34"><path class="a" d="M-3184.407,280.183a17.019,17.019,0,0,0-17,17,17.02,17.02,0,0,0,17,17,17.02,17.02,0,0,0,17-17A17.019,17.019,0,0,0-3184.407,280.183Zm0,33a16.017,16.017,0,0,1-16-16,16.017,16.017,0,0,1,16-16,16.017,16.017,0,0,1,16,16A16.017,16.017,0,0,1-3184.407,313.181Zm0-17.413a4.88,4.88,0,0,0,4.881-4.88,4.881,4.881,0,0,0-4.881-4.879,4.879,4.879,0,0,0-4.879,4.879A4.879,4.879,0,0,0-3184.408,295.768Zm0,2.048c-4.221,0-7.8,3.074-9.192,7.38a12.7,12.7,0,0,0,9.192,3.934,12.7,12.7,0,0,0,9.193-3.934C-3176.6,300.89-3180.185,297.816-3184.407,297.816Z" transform="translate(3201.407 -280.183)"/></svg>