<svg xmlns="http://www.w3.org/2000/svg" width="34.088" height="34.088" viewBox="0 0 34.088 34.088"><defs><style>.a{fill:#f0f0fa;}</style></defs><path class="a" d="M-265.075,52.059v4.3h1v-4.3c-.167.01-.331.025-.5.025S-264.909,52.069-265.075,52.059Zm4.471-.925,2.148,3.722.866-.5-2.146-3.719A8.653,8.653,0,0,1-260.6,51.134Zm3.41-3.039,3.718,2.147.5-.866-3.721-2.149A8.733,8.733,0,0,1-257.194,48.1Zm1.421-5.339c.01.167.026.332.026.5s-.016.334-.026.5h4.3v-1Zm2.8-5.62-.5-.865-3.718,2.146a8.848,8.848,0,0,1,.5.868Zm-7.628-1.758a9.185,9.185,0,0,1,.868.5l2.146-3.719-.866-.5Zm-3.471-.925v-4.3h-1v4.3c.166-.009.331-.025.5-.025S-264.242,34.444-264.075,34.453Zm-4.471.925-2.149-3.722-.866.5,2.147,3.719A8.94,8.94,0,0,1-268.546,35.378Zm-7.629,1.758,3.722,2.149a8.725,8.725,0,0,1,.5-.868l-3.718-2.146Zm2.772,6.12c0-.168.016-.333.025-.5h-4.3v1h4.3C-273.387,43.59-273.4,43.425-273.4,43.256Zm-2.772,6.12.5.866,3.718-2.147a8.937,8.937,0,0,1-.5-.868Zm4.614,4.98.866.5,2.149-3.722a8.543,8.543,0,0,1-.868-.5Zm6.986-28.144a17.063,17.063,0,0,0-17.044,17.044A17.063,17.063,0,0,0-264.575,60.3a17.063,17.063,0,0,0,17.044-17.044A17.063,17.063,0,0,0-264.575,26.212Zm0,33.088a16.062,16.062,0,0,1-16.044-16.044,16.062,16.062,0,0,1,16.044-16.044,16.062,16.062,0,0,1,16.044,16.044A16.062,16.062,0,0,1-264.575,59.3ZM-270.8,43.256a6.225,6.225,0,0,0,6.228,6.228,6.224,6.224,0,0,0,6.227-6.228,6.223,6.223,0,0,0-6.227-6.227A6.224,6.224,0,0,0-270.8,43.256Z" transform="translate(281.619 -26.212)"/></svg>