<svg id="Layer_1" data-name="Layer 1" xmlns="http://www.w3.org/2000/svg" viewBox="0 0 149.73 135.03"><defs><style>.cls-1{fill:#001c32;}.cls-2{fill:#ff512f;}.cls-3{fill:#317aff;}.cls-4{fill:#91919d;}</style></defs><polygon class="cls-1" points="104.98 30.06 89.23 99.69 97.68 135.03 113.43 65.41 104.98 30.06"/><polygon class="cls-1" points="72.58 30.06 72.58 30.07 72.58 30.06 72.58 30.06"/><polygon class="cls-1" points="60.23 11.99 41.77 93.6 48.84 135.03 67.3 53.42 60.23 11.99"/><polygon class="cls-2" points="30.54 0 27.83 11.99 27.83 11.99 27.83 11.99 0 135.03 32.39 135.03 41.77 93.6 60.23 11.99 30.54 0"/><polygon class="cls-3" points="75.3 18.07 72.58 30.06 72.58 30.07 67.3 53.42 48.84 135.03 81.23 135.03 89.23 99.69 104.98 30.06 75.3 18.07"/><polygon class="cls-4" points="120.05 36.15 113.43 65.41 97.68 135.03 130.07 135.03 149.73 48.14 120.05 36.15"/></svg>