<svg id="Layer_1" data-name="Layer 1" xmlns="http://www.w3.org/2000/svg" viewBox="0 0 378.76 63.55"><defs><style>.cls-1{fill:#fafaff;}</style></defs><path class="cls-1" d="M105.75,25A2.29,2.29,0,0,1,108,22.77h.51A2.51,2.51,0,0,1,110.65,24L125,45.63,139.44,24a2.44,2.44,0,0,1,2.13-1.21h.52A2.29,2.29,0,0,1,144.34,25V61.24a2.31,2.31,0,0,1-2.25,2.31,2.36,2.36,0,0,1-2.3-2.31V31.18l-12.9,19a2.23,2.23,0,0,1-1.9,1.15,2.31,2.31,0,0,1-2-1.15L110.19,31.24V61.3a2.22,2.22,0,1,1-4.44,0Z"/><path class="cls-1" d="M167.67,25a2.28,2.28,0,1,1,4.55,0V61.24a2.28,2.28,0,1,1-4.55,0Z"/><path class="cls-1" d="M195.54,25a2.29,2.29,0,0,1,2.25-2.25h.63a2.81,2.81,0,0,1,2.31,1.32L225.2,55.31V24.9a2.22,2.22,0,1,1,4.44,0V61.3a2,2,0,0,1-2.07,2.13h-.23A3.13,3.13,0,0,1,225,62.05l-25-32V61.3a2.22,2.22,0,1,1-4.44,0Z"/><path class="cls-1" d="M253,25a2.28,2.28,0,1,1,4.55,0V61.24a2.28,2.28,0,1,1-4.55,0Z"/><path class="cls-1" d="M280.84,25a2.29,2.29,0,0,1,2.25-2.25h.52A2.49,2.49,0,0,1,285.74,24l14.4,21.65L314.54,24a2.44,2.44,0,0,1,2.13-1.21h.52A2.28,2.28,0,0,1,319.43,25V61.24a2.3,2.3,0,0,1-2.24,2.31,2.36,2.36,0,0,1-2.31-2.31V31.18l-12.9,19a2.22,2.22,0,0,1-1.9,1.15,2.31,2.31,0,0,1-2-1.15L285.28,31.24V61.3a2.22,2.22,0,1,1-4.44,0Z"/><path class="cls-1" d="M339.88,60.26,356.24,24.5a3,3,0,0,1,2.88-2h.23a2.9,2.9,0,0,1,2.82,2l16.36,35.71a3.06,3.06,0,0,1,.28,1.15,2.18,2.18,0,0,1-2.18,2.19,2.48,2.48,0,0,1-2.25-1.67l-4.2-9.28H348.06L343.85,62a2.28,2.28,0,0,1-2.18,1.56,2.07,2.07,0,0,1-2.08-2.08A2.65,2.65,0,0,1,339.88,60.26Zm28.51-11.8-9.27-20.62-9.28,20.62Z"/><path class="cls-1" d="M56.55,17,53.43,30.78l-4-16.63-14-5.64-1.28,5.64h0l-2.48,11L28.4,5.64,14.43,0,13.15,5.64h0L.05,63.55H15.3l4.41-19.5L23,63.55H38.28L42,46.91l4,16.64H61.27l9.25-40.9ZM18.33,43.74,14.17,62.13H1.82L14.53,6v0l.9-4L26.75,6.5Zm2.2-3.31,7-31.17,3.33,19.5-7,31.17ZM40.66,46.6,37.15,62.13H24.81l8.3-36.68,2.48-11,.91-4L47.81,15Zm2.09-2.81,6-26.51,4,16.63h0l-6,26.51ZM60.14,62.13H47.79l7-31L57.56,19l11.31,4.57Z"/></svg>