<?xml version="1.0" encoding="utf-8"?>
<!-- Generator: Adobe Illustrator 25.1.0, SVG Export Plug-In . SVG Version: 6.00 Build 0)  -->
<svg version="1.1" id="Layer_1" xmlns="http://www.w3.org/2000/svg" xmlns:xlink="http://www.w3.org/1999/xlink" x="0px" y="0px"
	 viewBox="0 0 38 38" style="enable-background:new 0 0 38 38;" xml:space="preserve">
<style type="text/css">
	.st0{fill:#F8F8FF;}
	.st1{fill:#001C32;}
	.st2{fill:#FF512F;}
	.st3{fill:#317AFF;}
	.st4{fill:#91919D;}
</style>
<circle id="Ellipse_102" class="st0" cx="19" cy="19" r="19"/>
<g id="Group_931">
	<path id="Path_547" class="st1" d="M23.1,13L21,22.6l1.2,4.9l2.2-9.6L23.1,13z"/>
	<path id="Path_548" class="st1" d="M17,10.6l-2.5,11.2l1,5.7L18,16.3L17,10.6z"/>
	<path id="Path_549" class="st2" d="M12.9,8.9l-0.4,1.6l0,0L8.7,27.5h4.5l1.3-5.7L17,10.6L12.9,8.9z"/>
	<path id="Path_550" class="st3" d="M19.1,11.4L18.7,13l0,0L18,16.3l-2.5,11.2h4.5l1.1-4.9l2.2-9.6L19.1,11.4z"/>
	<path id="Path_551" class="st4" d="M25.2,13.9l-0.9,4l-2.2,9.6h4.5l2.7-12L25.2,13.9z"/>
</g>
</svg>
