<?xml version="1.0" encoding="utf-8"?>
<!-- Generator: Adobe Illustrator 25.1.0, SVG Export Plug-In . SVG Version: 6.00 Build 0)  -->
<svg version="1.1" id="Layer_1" xmlns="http://www.w3.org/2000/svg" xmlns:xlink="http://www.w3.org/1999/xlink" x="0px" y="0px"
	 viewBox="0 0 64 64" style="enable-background:new 0 0 64 64;" xml:space="preserve">
<style type="text/css">
	.st0{fill:#001C32;}
	.st1{fill:#F7F7FF;}
	.st2{fill:#FF512F;}
	.st3{fill:#317AFF;}
	.st4{fill:#8E8E9A;}
</style>
<rect x="0" class="st1" width="64" height="64"/>
<polygon class="st0" points="41,20.8 36.3,41.6 38.8,52.2 43.5,31.4 "/>
<polygon class="st0" points="31.3,20.8 31.3,20.8 31.3,20.8 "/>
<polygon class="st0" points="27.6,15.4 22.1,39.8 24.2,52.2 29.7,27.8 "/>
<polygon class="st0" points="17.9,15.4 17.9,15.4 17.9,15.4 "/>
<polygon class="st2" points="18.7,11.8 17.9,15.4 17.9,15.4 9.6,52.2 19.3,52.2 22.1,39.8 27.6,15.4 "/>
<polygon class="st3" points="32.1,17.2 31.3,20.8 31.3,20.8 29.7,27.8 24.2,52.2 33.9,52.2 36.3,41.6 41,20.8 "/>
<polygon class="st4" points="45.5,22.6 43.5,31.4 38.8,52.2 48.5,52.2 54.4,26.2 "/>
</svg>
