<?xml version="1.0" encoding="utf-8"?>
<!-- Generator: Adobe Illustrator 25.1.0, SVG Export Plug-In . SVG Version: 6.00 Build 0)  -->
<svg version="1.1" id="Layer_1" xmlns="http://www.w3.org/2000/svg" xmlns:xlink="http://www.w3.org/1999/xlink" x="0px" y="0px"
	 viewBox="0 0 100 100" style="enable-background:new 0 0 100 100;" xml:space="preserve">
<style type="text/css">
	.st0{fill:#317AFF;}
	.st1{fill:#F7F7FF;}
</style>
<rect class="st0" width="100" height="100"/>
<polygon class="st1" points="50,47.5 22.3,31.5 50,15.6 55.5,18.8 33.4,31.5 38.9,34.7 61.1,22 66.6,25.2 44.5,37.9 55.5,44.3 "/>
<polygon class="st1" points="52.9,52.5 80.5,36.5 80.5,42.9 69.5,49.3 69.5,74.8 63.9,78 63.9,52.5 52.9,58.9 "/>
<polygon class="st1" points="41.6,49.3 41.6,72.7 26.4,40.5 19.5,36.5 19.5,36.5 19.5,36.5 19.5,68.5 25,71.7 25,48.2 40.2,80.4 
	47.1,84.4 47.1,52.5 "/>
</svg>
