<svg xmlns="http://www.w3.org/2000/svg" width="34" height="34" viewBox="0 0 34 34"><path class="a" d="M-3184.407,441.589a17.019,17.019,0,0,0-17,17,17.019,17.019,0,0,0,17,17,17.019,17.019,0,0,0,17-17A17.019,17.019,0,0,0-3184.407,441.589Zm0,33a16.017,16.017,0,0,1-16-16,16.017,16.017,0,0,1,16-16,16.017,16.017,0,0,1,16,16A16.017,16.017,0,0,1-3184.407,474.588Zm8.882-19.927a1.742,1.742,0,0,0,.1-.566,1.75,1.75,0,0,0-1.751-1.75,1.75,1.75,0,0,0-1.751,1.75,1.735,1.735,0,0,0,.1.566l-6.772,6.772a1.745,1.745,0,0,0-.566-.1,1.731,1.731,0,0,0-.573.105l-3.394-3.367a1.729,1.729,0,0,0,.1-.559,1.751,1.751,0,0,0-1.751-1.751,1.751,1.751,0,0,0-1.751,1.751,1.735,1.735,0,0,0,.1.566l-2.714,2.714,1.083,1.083,2.714-2.714a1.714,1.714,0,0,0,.566.1,1.756,1.756,0,0,0,.573-.1l3.394,3.365a1.733,1.733,0,0,0-.1.56,1.752,1.752,0,0,0,1.751,1.751,1.752,1.752,0,0,0,1.751-1.751,1.715,1.715,0,0,0-.1-.566l6.772-6.772a1.744,1.744,0,0,0,.566.1,1.741,1.741,0,0,0,.566-.1l2.853,2.853,1.083-1.084Z" transform="translate(3201.407 -441.589)"/></svg>