<svg xmlns="http://www.w3.org/2000/svg" width="34" height="34" viewBox="0 0 34 34"><path class="a" d="M-3184.407,493.411a17.019,17.019,0,0,0-17,17,17.02,17.02,0,0,0,17,17,17.02,17.02,0,0,0,17-17A17.019,17.019,0,0,0-3184.407,493.411Zm0,33a16.017,16.017,0,0,1-16-16,16.017,16.017,0,0,1,16-16,16.017,16.017,0,0,1,16,16A16.017,16.017,0,0,1-3184.407,526.409Zm3-20.783,4.784,4.784-4.784,4.785,1.625,1.625,6.409-6.41-6.409-6.409Zm-7.623-1.625-6.409,6.409,6.409,6.41,1.625-1.625-4.784-4.785,4.784-4.784Z" transform="translate(3201.407 -493.411)"/></svg>