<svg id="Layer_1" data-name="Layer 1" xmlns="http://www.w3.org/2000/svg" viewBox="0 0 800 800"><defs><style>.cls-1{fill:none;}.cls-2{fill:#001c32;}.cls-3{fill:#fff;}.cls-4{fill:#ff512f;}</style></defs><rect class="cls-1" x="0.01" y="0.03" width="799.98" height="799.98"/><rect class="cls-2" x="0.02" width="799.96" height="799.96"/><path class="cls-3" d="M83.17,513.53V373h83.28v20.4H103.57V433h51.16v20.5H103.57v60Z"/><path class="cls-3" d="M223.75,516.36q-10.94,0-18.35-3.51a33.65,33.65,0,0,1-12.05-9.23,42.29,42.29,0,0,1-7.08-12.44A63.83,63.83,0,0,1,183,478a84.62,84.62,0,0,1-.89-11.33V408.1h20.71v51.84a80.29,80.29,0,0,0,1,12.64,39.24,39.24,0,0,0,3.91,12.06,23.41,23.41,0,0,0,8.1,9c3.48,2.29,8,3.43,13.62,3.43a29.67,29.67,0,0,0,10.34-1.81,21.63,21.63,0,0,0,8.54-5.81,28.13,28.13,0,0,0,5.76-10.54,52.59,52.59,0,0,0,2.1-15.92l12.7,4.79q0,14.36-5.38,25.33a40.31,40.31,0,0,1-15.43,17.13Q238,516.36,223.75,516.36Zm34.85-2.83V483.07h-2.44v-75h20.6V513.53Z"/><path class="cls-3" d="M292.38,424.49V408.1h72v16.39Zm72,89a87.77,87.77,0,0,1-19.52,1.66,44.38,44.38,0,0,1-17.08-3.71,23.28,23.28,0,0,1-11.33-10.74,30.72,30.72,0,0,1-3.66-13.32q-.24-6.78-.25-15.38V378.81h20.5v92.26c0,4.23.06,7.9.15,11a16.54,16.54,0,0,0,2,7.91q3.51,6.06,11.17,6.88a73.66,73.66,0,0,0,18-.63Z"/><path class="cls-3" d="M426.32,516.36q-10.94,0-18.36-3.51a34,34,0,0,1-12.06-9.23,42.94,42.94,0,0,1-7.07-12.44A64.52,64.52,0,0,1,385.5,478a86,86,0,0,1-.87-11.33V408.1h20.69v51.84a81.54,81.54,0,0,0,1,12.64,39.51,39.51,0,0,0,3.91,12.06,23.41,23.41,0,0,0,8.1,9Q423.58,497,432,497a29.78,29.78,0,0,0,10.36-1.81,21.77,21.77,0,0,0,8.54-5.81,28.13,28.13,0,0,0,5.76-10.54A52.93,52.93,0,0,0,458.72,463l12.69,4.79q0,14.36-5.36,25.33a40.44,40.44,0,0,1-15.43,17.13Q440.57,516.36,426.32,516.36Zm34.85-2.83V483.07h-2.45v-75h20.6V513.53Z"/><path class="cls-3" d="M506.66,513.53V408.1H524.8v25.57l-2.53-3.32a40.16,40.16,0,0,1,5.08-9.32,28.63,28.63,0,0,1,7.23-7,31.86,31.86,0,0,1,8.93-4.54,40.85,40.85,0,0,1,10.1-1.95,40.07,40.07,0,0,1,10,.54v19.13a33,33,0,0,0-11.48-.78,26.14,26.14,0,0,0-19.43,11.82,32.44,32.44,0,0,0-4.15,10.2,53.31,53.31,0,0,0-1.26,11.86v53.2Z"/><path class="cls-3" d="M626.92,516.46q-15.7,0-27.57-6.88a47.7,47.7,0,0,1-18.45-19.24q-6.6-12.34-6.59-28.65,0-17.28,6.5-30a47.33,47.33,0,0,1,18.1-19.63q11.61-6.93,27-6.94,16.13,0,27.43,7.48t16.94,21.23q5.61,13.75,4.44,32.7H654.35v-7.41q-.18-18.37-7-27.14t-20.66-8.79q-15.32,0-23,9.66T596,460.81q0,17.38,7.72,26.9T626,497.22a30.66,30.66,0,0,0,16.55-4.34,29,29,0,0,0,10.88-12.45l20,6.35a47.19,47.19,0,0,1-18.64,21.92A51.73,51.73,0,0,1,626.92,516.46Zm-37.58-49.89V450.66h75.27v15.91Z"/><path class="cls-4" d="M141.84,696.34q-21.07,0-35.92-9.22a59.86,59.86,0,0,1-22.7-25.73q-7.86-16.5-7.86-38.27t7.86-38.27a59.89,59.89,0,0,1,22.7-25.72q14.85-9.23,35.92-9.23,24.33,0,40.28,12.31t22.21,33.09l-20.7,5.56q-4.11-14.73-14.59-23.14t-27.2-8.39q-14.93,0-24.89,6.74a41,41,0,0,0-15,18.84q-5,12.11-5,28.21t4.93,28.22a41,41,0,0,0,15,18.83q10,6.75,24.94,6.75,16.69,0,27.2-8.45t14.59-23.09l20.7,5.57q-6.27,20.79-22.21,33.09T141.84,696.34Z"/><path class="cls-4" d="M255.58,696.34q-11.73,0-19.62-4.35a29.81,29.81,0,0,1-12-11.51,31.54,31.54,0,0,1-4-15.77,32.8,32.8,0,0,1,2.83-14.06,27.36,27.36,0,0,1,8.4-10.3,45.53,45.53,0,0,1,13.66-6.88,149.07,149.07,0,0,1,15.91-3.61q8.88-1.58,18.7-2.93t19.47-2.74l-7.42,4.11q.19-12.4-5.22-18.41t-18.6-6a30.91,30.91,0,0,0-15.23,3.85q-6.93,3.87-9.66,12.75l-19-5.86a39.4,39.4,0,0,1,14.88-21.58q11-8,29.24-8,14.17,0,24.66,4.84a30.61,30.61,0,0,1,15.38,15.28A32,32,0,0,1,311,616.09a120.21,120.21,0,0,1,.59,12.4v64.92H293.55V669.3l3.52,3.12q-6.54,12.11-16.65,18T255.58,696.34Zm3.61-16.7a33.51,33.51,0,0,0,14.93-3.07,28.71,28.71,0,0,0,10.06-7.86,24.7,24.7,0,0,0,5-10,36.48,36.48,0,0,0,1.91-10.55c.15-3.9.24-7,.24-9.37l6.63,2.44-17.57,2.63c-5.26.79-10,1.56-14.3,2.3a90.15,90.15,0,0,0-11.36,2.68,36.74,36.74,0,0,0-7.48,3.52,16.46,16.46,0,0,0-5.18,5,12.93,12.93,0,0,0-1.9,7.14,14.56,14.56,0,0,0,2.06,7.56,14.16,14.16,0,0,0,6.25,5.52A24.53,24.53,0,0,0,259.19,679.64Z"/><path class="cls-4" d="M377.31,696.24q-19.23,0-31.34-8.49t-14.84-23.92L352,660.61a20.85,20.85,0,0,0,9,12.93q7.06,4.74,17.61,4.74,9.58,0,15-3.91a12.51,12.51,0,0,0,5.41-10.74,10.4,10.4,0,0,0-1.89-6.49q-1.92-2.49-8-4.73t-18.45-5.57q-13.57-3.51-21.53-7.56t-11.32-9.47a24.35,24.35,0,0,1-3.37-13.13A28,28,0,0,1,339.63,600a32.59,32.59,0,0,1,14.3-11A55.23,55.23,0,0,1,375.55,585a57.4,57.4,0,0,1,21.58,3.82,38,38,0,0,1,15.32,10.78,30.73,30.73,0,0,1,7,16.35l-20.88,3.81a17.21,17.21,0,0,0-7.13-12q-6.06-4.38-15.71-4.78-9.27-.39-15,3.08T355,615.6a8.54,8.54,0,0,0,2.21,6q2.18,2.45,8.53,4.69t18.74,5.37q13.29,3.4,21.09,7.56T416.71,649a26.89,26.89,0,0,1,3.36,13.81q0,15.63-11.38,24.51T377.31,696.24Z"/><path class="cls-4" d="M441.55,693.41V552.84h18.26v75.85h2.43v64.72Zm74.09,0V641.57a82.71,82.71,0,0,0-1-12.64,39.88,39.88,0,0,0-3.91-12.06,23.43,23.43,0,0,0-8.1-9c-3.48-2.28-8-3.42-13.63-3.42a29.59,29.59,0,0,0-10.34,1.81,21.66,21.66,0,0,0-8.55,5.81,28.13,28.13,0,0,0-5.76,10.54,52.59,52.59,0,0,0-2.1,15.92l-12.69-4.79q0-14.35,5.37-25.33a40.51,40.51,0,0,1,15.42-17.14q10.07-6.13,24.31-6.14,11,0,18.36,3.51a34.13,34.13,0,0,1,12.06,9.22,43.26,43.26,0,0,1,7.08,12.45,64.92,64.92,0,0,1,3.31,13.18,84.45,84.45,0,0,1,.88,11.33v58.57Z"/><path class="cls-4" d="M607,678.68l40.1-39.31L607,600.07l14.73-14.73,54,54-54,54Z"/></svg>