<svg xmlns="http://www.w3.org/2000/svg" width="35" height="35" viewBox="0 0 35 35"><defs><style>.a{fill:none;stroke:#001c32;stroke-miterlimit:10;}.b{fill:#001c32;}</style></defs><g transform="translate(-111.5 -569.5)"><g transform="translate(481.252 487.475)"><circle class="a" cx="17" cy="17" r="17" transform="translate(-369.252 82.525)"/><path class="b" d="M-359.851,96.6a2.718,2.718,0,0,0,2.718-2.718,2.718,2.718,0,0,0-2.718-2.718,2.717,2.717,0,0,0-2.717,2.718A2.718,2.718,0,0,0-359.851,96.6Zm4.928,4.729a5.458,5.458,0,0,0-4.927-3.589,5.56,5.56,0,0,0-5.12,4.11,7.069,7.069,0,0,0,5.12,2.191,7.1,7.1,0,0,0,1.322-.126A8.688,8.688,0,0,1-354.923,101.325Zm10.269-4.729a2.718,2.718,0,0,0,2.718-2.718,2.718,2.718,0,0,0-2.718-2.718,2.718,2.718,0,0,0-2.718,2.718A2.719,2.719,0,0,0-344.654,96.6Zm0,1.14a5.461,5.461,0,0,0-4.927,3.588,8.7,8.7,0,0,1,3.606,2.587,7.1,7.1,0,0,0,1.321.126,7.069,7.069,0,0,0,5.12-2.191A5.558,5.558,0,0,0-344.654,97.736ZM-356.1,96.83l.007.04,0,.016A3.919,3.919,0,0,0-352.253,100a3.921,3.921,0,0,0,3.777-2.872c.006-.023.013-.045.019-.067.028-.111.051-.224.07-.338l.008-.045a4.04,4.04,0,0,0,.045-.6,3.919,3.919,0,0,0-3.919-3.918,3.918,3.918,0,0,0-3.917,3.918c0,.135.007.269.02.4S-356.12,96.716-356.1,96.83Zm10.582,9.2-.016-.029a8.787,8.787,0,0,0-2.089-2.616,7.613,7.613,0,0,0-1.662-1.071,6.942,6.942,0,0,0-2.969-.668,6.957,6.957,0,0,0-2.969.668,7.583,7.583,0,0,0-1.661,1.071c-.131.11-.26.224-.385.343a9.232,9.232,0,0,0-2.366,3.843c.034.035.069.069.1.105a10.192,10.192,0,0,0,4.955,2.786l.01,0,.209.046.042.009.177.034c.026,0,.051.011.077.015l.147.025.107.018.117.016.14.02.087.01.17.02.065,0c.064.006.129.013.194.017l.043,0,.217.014h.01c.17.008.34.012.511.012.256,0,.51-.01.763-.028l.018,0c.079,0,.157-.013.235-.021h.024l.237-.028.019,0c.079-.01.156-.021.234-.033l.022,0c.08-.012.16-.026.239-.039l.016,0,.236-.046.017,0c.08-.017.161-.034.242-.053l.009,0c.082-.019.164-.039.245-.06h0a10.382,10.382,0,0,0,1.337-.447,10.182,10.182,0,0,0,3.484-2.386c-.035-.108-.071-.216-.109-.322A9.673,9.673,0,0,0-345.516,106.028Z"/></g></g></svg>