<svg xmlns="http://www.w3.org/2000/svg" width="40" height="40" viewBox="0 0 40 40"><g transform="translate(-322 -135)"><path d="M20,0A20,20,0,1,0,40,20,20,20,0,0,0,20,0ZM16.608,7.458A11.292,11.292,0,0,0,14.2,11.3c-.086-.043-.17-.086-.255-.131l-.162-.085c-.123-.067-.245-.138-.366-.209l-.126-.073q-.222-.134-.438-.278l-.042-.027q-.466-.31-.907-.663A12.97,12.97,0,0,1,16.608,7.458Zm-5.55,3.117.054.042c.08.066.163.129.244.192s.164.128.248.19.171.124.257.185.166.118.25.174.178.117.267.175.169.109.255.161.183.11.276.164.171.1.258.148.189.1.284.153.176.092.265.136l.1.053a24.361,24.361,0,0,0-1.134,7.1H7.019A13,13,0,0,1,11.058,10.575ZM11.6,29c-.084.062-.166.127-.248.191s-.164.126-.244.192l-.054.042a13,13,0,0,1-4.04-8.875h5.664a24.35,24.35,0,0,0,1.135,7.1c-.033.016-.066.034-.1.05q-.137.068-.274.14c-.092.049-.184.1-.276.149s-.177.1-.264.151-.182.106-.272.162-.172.108-.257.163-.177.114-.265.173-.168.117-.252.176S11.689,28.938,11.6,29Zm.3,1.16q.44-.351.905-.662l.064-.04q.206-.136.416-.263c.047-.029.1-.055.143-.083.115-.068.231-.135.348-.2.059-.032.119-.062.179-.094q.12-.063.241-.124a11.292,11.292,0,0,0,2.41,3.847A12.962,12.962,0,0,1,11.9,30.16Zm7.547,2.778c-1.674-.323-3.181-2.1-4.22-4.7l.084-.034.227-.085q.151-.055.3-.107l.237-.078c.1-.032.2-.062.3-.091.082-.024.164-.047.246-.069.1-.027.2-.052.3-.076.084-.02.168-.041.253-.06s.2-.042.3-.062.172-.034.258-.05.2-.032.3-.048.175-.028.263-.039.2-.023.3-.034.176-.02.265-.028.206-.014.308-.021c.087-.005.174-.013.262-.016h.014Zm0-6.7-.084,0-.11.007c-.172.009-.343.02-.513.035-.066.006-.131.015-.2.022-.141.014-.282.029-.422.048-.078.01-.155.024-.232.035-.127.019-.254.038-.38.061-.085.015-.169.033-.254.05-.118.023-.236.047-.353.073-.088.02-.176.042-.264.064-.112.028-.224.055-.335.085-.091.025-.181.052-.272.078-.107.032-.213.063-.319.1s-.185.061-.277.092-.2.07-.306.108-.186.07-.279.106a23.3,23.3,0,0,1-1.07-6.648h5.664Zm0-6.785H13.785a23.3,23.3,0,0,1,1.07-6.648q.142.056.286.109c.095.035.19.068.286.1s.2.068.3.1.2.06.294.089.2.058.3.085.2.052.305.078.2.049.294.071.211.044.317.065.193.04.29.057.221.036.331.053c.094.015.187.03.281.043.118.016.236.028.354.04.088.01.176.021.265.029.132.012.264.019.4.027.075,0,.15.011.226.015l.075,0Zm0-6.786h-.023l-.175-.011c-.132-.008-.264-.016-.4-.027-.07-.006-.14-.015-.21-.022-.119-.012-.238-.025-.357-.04-.074-.01-.148-.022-.221-.033-.114-.017-.228-.034-.342-.055-.075-.013-.149-.028-.224-.043-.112-.022-.223-.044-.334-.069l-.224-.053c-.11-.027-.22-.054-.328-.084l-.22-.062c-.109-.032-.218-.064-.327-.1l-.214-.07c-.109-.037-.218-.076-.326-.115l-.206-.077-.093-.037c1.039-2.6,2.546-4.38,4.22-4.7ZM28.1,9.839q-.442.353-.909.664l-.022.014q-.226.149-.457.289l-.122.071c-.122.072-.244.143-.368.211l-.166.087q-.125.066-.252.129a11.293,11.293,0,0,0-2.41-3.847A12.978,12.978,0,0,1,28.1,9.839ZM20.551,7.061c1.674.324,3.181,2.1,4.22,4.7l-.088.035c-.072.028-.145.055-.218.082-.1.038-.208.075-.313.11l-.227.074c-.1.033-.207.064-.312.094l-.235.066c-.1.028-.207.054-.312.079-.08.02-.16.039-.24.057-.105.024-.21.045-.316.066-.08.016-.16.032-.24.046-.108.019-.216.036-.324.052-.08.012-.159.025-.238.036-.112.015-.225.026-.337.038-.076.008-.152.018-.229.024-.124.011-.25.018-.374.026-.065,0-.13.01-.195.012h-.022Zm0,6.7.077,0c.066,0,.132-.009.2-.013.142-.008.284-.016.425-.029.081-.007.16-.018.241-.026.126-.013.253-.026.379-.043.086-.012.172-.026.258-.039.118-.018.237-.036.355-.057.09-.016.179-.035.269-.053.113-.023.226-.045.338-.07.092-.021.184-.044.276-.067.108-.026.216-.053.324-.082s.187-.053.28-.081.208-.061.311-.094.189-.062.283-.095.2-.069.3-.106.188-.071.281-.107a23.3,23.3,0,0,1,1.07,6.648H20.551Zm0,6.785h5.664a23.288,23.288,0,0,1-1.07,6.648l-.008,0c-.088-.034-.176-.068-.264-.1-.108-.04-.216-.077-.324-.114-.086-.029-.172-.059-.258-.086-.113-.036-.226-.07-.34-.1-.084-.024-.167-.05-.251-.072-.119-.032-.238-.062-.358-.091-.08-.02-.161-.04-.242-.058-.126-.028-.252-.054-.378-.078-.076-.015-.152-.031-.229-.045-.135-.024-.271-.045-.407-.065-.069-.01-.137-.022-.206-.032-.15-.02-.3-.036-.451-.051l-.168-.018c-.181-.016-.362-.028-.544-.037l-.081-.005-.086,0Zm0,12.388v-5.6h.013c.094,0,.186.012.279.018s.193.012.29.02.188.02.282.03.189.02.284.032.185.027.278.042.19.029.284.046.182.034.272.052.19.038.285.059.177.041.265.063.191.047.286.073.172.047.257.072.193.057.289.088l.247.081c.1.033.2.068.293.1.079.028.158.058.236.088l.081.032C23.732,30.839,22.224,32.615,20.551,32.939Zm2.84-.4a11.3,11.3,0,0,0,2.41-3.848c.081.041.162.082.242.124.059.031.119.061.178.093.12.065.237.134.354.2.045.027.091.052.136.079q.224.135.442.28l.036.023q.467.311.908.664A12.985,12.985,0,0,1,23.391,32.543Zm5.55-3.118-.05-.039c-.085-.069-.172-.136-.259-.2s-.156-.121-.235-.18-.176-.128-.265-.19-.162-.114-.244-.17-.179-.118-.269-.176-.169-.108-.254-.161-.18-.108-.271-.161-.177-.1-.267-.152-.18-.1-.271-.146-.186-.1-.28-.144l-.095-.049a24.345,24.345,0,0,0,1.135-7.1h5.664A13,13,0,0,1,28.942,29.425Zm-1.625-9.976a24.347,24.347,0,0,0-1.135-7.1l.1-.052q.134-.067.268-.138t.282-.152c.087-.048.172-.1.258-.148s.185-.109.277-.165.168-.105.251-.159.182-.117.272-.178.161-.112.241-.168.179-.126.267-.192.156-.118.233-.178.174-.135.26-.2l.05-.039a13,13,0,0,1,4.04,8.874Z" transform="translate(322 135)"/></g></svg>