<svg xmlns="http://www.w3.org/2000/svg" width="40" height="40" viewBox="0 0 40 40"><path d="M-100-120a20,20,0,0,0-20,20,20,20,0,0,0,20,20,20,20,0,0,0,20-20A20,20,0,0,0-100-120Zm12.473,26.266a3.261,3.261,0,0,1-2.3,2.3c-2.03.544-10.172.544-10.172.544s-8.142,0-10.172-.544a3.262,3.262,0,0,1-2.3-2.3,33.9,33.9,0,0,1-.544-6.266,33.907,33.907,0,0,1,.544-6.266,3.261,3.261,0,0,1,2.3-2.3c2.03-.544,10.172-.544,10.172-.544s8.141,0,10.172.544a3.26,3.26,0,0,1,2.3,2.3A33.882,33.882,0,0,1-86.983-100,33.88,33.88,0,0,1-87.527-93.734ZM-102.6-96.095-95.84-100l-6.763-3.905Z" transform="translate(120 120)"/></svg>