<svg id="Layer_1" data-name="Layer 1" xmlns="http://www.w3.org/2000/svg" viewBox="0 0 629.74 220.12"><defs><style>.cls-1{fill:#001c34;}</style></defs><path class="cls-1" d="M70.54,121.82A24.6,24.6,0,0,1,75,136.65q0,12.63-8.88,20.55t-23,7.93H0V68.24H34.35q13.5,0,22.09,7.56A24.73,24.73,0,0,1,65,95.25a23.19,23.19,0,0,1-7.19,17.47A26,26,0,0,1,70.54,121.82ZM19.08,85.27v22.17H32.74q6,0,9.32-3a10.5,10.5,0,0,0,3.3-8.15,10.23,10.23,0,0,0-3.3-8.07q-3.3-2.94-9.32-2.94Zm32.74,59.6q3.68-3.23,3.67-9A11.37,11.37,0,0,0,51.82,127q-3.68-3.3-10.13-3.3H19.08V148.1H41.69Q48.16,148.1,51.82,144.87Z"/><path class="cls-1" d="M106,165.13H86.16V55H106Z"/><path class="cls-1" d="M184.37,101.78a35.83,35.83,0,0,1,11.45,26.94,36,36,0,0,1-11.45,27,38.59,38.59,0,0,1-27.75,11q-16.29,0-27.52-10.93t-11.23-27.09a36.05,36.05,0,0,1,11.3-26.94q11.31-10.94,27.6-10.93A38.54,38.54,0,0,1,184.37,101.78Zm-41.11,12.78Q138,120.2,138,128.87T143.26,143A19.13,19.13,0,0,0,170.2,143a19.54,19.54,0,0,0,5.36-14.09,20,20,0,0,0-5.36-14.24,18.78,18.78,0,0,0-26.94-.07Z"/><path class="cls-1" d="M261.13,95.62a34.67,34.67,0,0,1,12.77,13.14l-13.8,10.71q-7-10.56-17.47-10.57a18.07,18.07,0,0,0-13.72,5.66,19.77,19.77,0,0,0-5.36,14.16A20,20,0,0,0,228.91,143a18.07,18.07,0,0,0,13.72,5.66q10.14,0,17.47-10.43l13.8,10.57A35,35,0,0,1,261.06,162a35.92,35.92,0,0,1-18.72,4.85,38.08,38.08,0,0,1-27.6-11,36.43,36.43,0,0,1-11.3-27.16,36.05,36.05,0,0,1,11.3-26.94q11.31-10.94,27.6-10.93A36.25,36.25,0,0,1,261.13,95.62Z"/><path class="cls-1" d="M333.93,165.13l-29.21-40.08v40.08H284.9V55h19.82v68.55l26.13-31.12h23.49L327,124.61l29.51,40.52Z"/><polygon class="cls-1" points="533.31 0 436.87 55.03 436.87 165.09 456.16 176.1 456.16 66.04 552.59 11.01 533.31 0"/><polygon class="cls-1" points="552.59 121.07 552.59 143.08 571.88 132.07 571.88 110.06 552.59 121.07"/><polygon class="cls-1" points="571.88 22.01 552.59 33.02 475.44 77.04 475.44 187.11 494.73 198.11 494.73 88.05 591.17 33.02 571.88 22.01"/><polygon class="cls-1" points="591.17 99.06 591.17 143.08 552.59 165.09 552.59 187.11 610.46 154.09 610.46 88.05 591.17 99.06"/><polygon class="cls-1" points="610.46 44.02 514.02 99.06 514.02 209.12 533.31 220.13 533.31 110.06 629.75 55.03 610.46 44.02"/></svg>