<?xml version="1.0" encoding="utf-8"?>
<!-- Generator: Adobe Illustrator 24.1.3, SVG Export Plug-In . SVG Version: 6.00 Build 0)  -->
<svg version="1.1" id="Layer_1" xmlns="http://www.w3.org/2000/svg" xmlns:xlink="http://www.w3.org/1999/xlink" x="0px" y="0px"
	 viewBox="0 0 155.91 155.91" style="enable-background:new 0 0 155.91 155.91;" xml:space="preserve">
<style type="text/css">
	.st0{fill:#FFFFFF;}
	.st1{fill:none;stroke:#000000;stroke-width:0.2195;stroke-miterlimit:10;}
	.st2{fill:#231F20;}
	.st3{fill:#F26826;}
	.st4{fill:#06ABC7;}
	.st5{fill:#929396;}
</style>
<polygon class="st2" points="34.47,53.14 34.47,115.18 45.34,108.97 45.34,59.34 88.82,34.53 88.82,22.12 "/>
<polygon class="st3" points="77.95,15.91 23.59,46.93 23.59,108.97 34.47,115.18 34.47,53.14 88.82,22.12 "/>
<polygon class="st4" points="88.82,84.16 88.82,96.56 99.7,90.36 99.7,77.95 "/>
<polygon class="st2" points="99.7,77.95 99.7,90.36 88.82,96.56 88.82,108.97 99.7,102.77 110.57,96.56 110.57,71.75 "/>
<polygon class="st2" points="56.21,65.55 56.21,127.58 67.08,121.38 67.08,71.75 110.57,46.93 110.57,34.53 "/>
<polygon class="st4" points="99.7,28.32 88.82,34.53 45.34,59.34 45.34,121.38 56.21,127.58 56.21,65.55 110.57,34.53 "/>
<polygon class="st5" points="110.57,71.75 110.57,96.56 88.82,108.97 88.82,121.38 121.44,102.77 121.44,65.55 "/>
<polygon class="st5" points="121.44,40.73 67.08,71.75 67.08,133.79 77.95,139.99 77.95,77.95 132.31,46.93 "/>
<path class="st2" d="M77.95,77.95v62.04l54.36-31.02V46.93L77.95,77.95z M121.44,102.77l-32.62,18.61V84.16l10.87-6.2l10.87-6.2
	l10.87-6.2V102.77z"/>
</svg>
