<?xml version="1.0" encoding="utf-8"?>
<!-- Generator: Adobe Illustrator 24.1.3, SVG Export Plug-In . SVG Version: 6.00 Build 0)  -->
<svg version="1.1" id="Layer_1" xmlns="http://www.w3.org/2000/svg" xmlns:xlink="http://www.w3.org/1999/xlink" x="0px" y="0px"
	 viewBox="0 0 385.51 76.54" style="enable-background:new 0 0 385.51 76.54;" xml:space="preserve">
<style type="text/css">
	.st0{fill:#FFFFFF;}
</style>
<g>
	<path class="st0" d="M109.13,31.51c0-1.21,1.04-2.25,2.25-2.25h0.52c0.98,0,1.67,0.52,2.13,1.21l14.4,21.66l14.4-21.66
		c0.46-0.75,1.21-1.21,2.13-1.21h0.52c1.21,0,2.25,1.04,2.25,2.25v36.23c0,1.27-1.04,2.3-2.25,2.3c-1.27,0-2.3-1.09-2.3-2.3V37.67
		l-12.9,18.95c-0.52,0.75-1.09,1.15-1.9,1.15s-1.44-0.4-1.96-1.15l-12.84-18.89V67.8c0,1.27-0.98,2.25-2.25,2.25
		c-1.21,0-2.19-0.98-2.19-2.25V31.51H109.13z"/>
	<path class="st0" d="M171.04,31.45c0-1.27,1.04-2.3,2.25-2.3c1.27,0,2.3,1.04,2.3,2.3v36.29c0,1.27-1.04,2.3-2.3,2.3
		c-1.21,0-2.25-1.04-2.25-2.3V31.45z"/>
	<path class="st0" d="M198.92,31.51c0-1.21,1.04-2.25,2.25-2.25h0.63c1.04,0,1.67,0.52,2.3,1.32l24.48,31.22V31.39
		c0-1.21,0.98-2.25,2.25-2.25c1.21,0,2.19,1.04,2.19,2.25v36.4c0,1.21-0.86,2.13-2.07,2.13h-0.23c-0.98,0-1.67-0.58-2.36-1.38
		l-25-31.97V67.8c0,1.21-0.98,2.25-2.25,2.25c-1.21,0-2.19-1.04-2.19-2.25V31.51z"/>
	<path class="st0" d="M256.34,31.45c0-1.27,1.04-2.3,2.25-2.3c1.27,0,2.3,1.04,2.3,2.3v36.29c0,1.27-1.04,2.3-2.3,2.3
		c-1.21,0-2.25-1.04-2.25-2.3V31.45z"/>
	<path class="st0" d="M284.22,31.51c0-1.21,1.04-2.25,2.25-2.25h0.52c0.98,0,1.67,0.52,2.13,1.21l14.4,21.66l14.4-21.66
		c0.46-0.75,1.21-1.21,2.13-1.21h0.52c1.21,0,2.25,1.04,2.25,2.25v36.23c0,1.27-1.04,2.3-2.25,2.3c-1.27,0-2.3-1.09-2.3-2.3V37.67
		l-12.9,18.95c-0.52,0.75-1.09,1.15-1.9,1.15s-1.44-0.4-1.96-1.15l-12.84-18.89V67.8c0,1.27-0.98,2.25-2.25,2.25
		c-1.21,0-2.19-0.98-2.19-2.25V31.51H284.22z"/>
	<path class="st0" d="M343.26,66.76l16.36-35.77c0.58-1.27,1.44-2.02,2.88-2.02h0.23c1.38,0,2.3,0.75,2.82,2.02L381.9,66.7
		c0.17,0.4,0.29,0.81,0.29,1.15c0,1.21-0.98,2.19-2.19,2.19c-1.09,0-1.84-0.75-2.25-1.67l-4.2-9.27h-22.12l-4.2,9.39
		c-0.4,0.98-1.15,1.56-2.19,1.56c-1.15,0-2.07-0.92-2.07-2.07C342.97,67.62,343.02,67.22,343.26,66.76z M371.77,54.95l-9.27-20.62
		l-9.27,20.62C353.23,54.95,371.77,54.95,371.77,54.95z"/>
</g>
<path class="st0" d="M18.71,8.43l11.31,4.57L21.6,50.24l-4.16,18.4H5.09L17.8,12.45c0-0.01,0-0.02,0.01-0.03L18.71,8.43 M17.7,6.49
	l-1.28,5.64h0l0,0L3.32,70.05h15.25l4.41-19.5l8.69-38.42L17.7,6.49L17.7,6.49z"/>
<path class="st0" d="M39.77,16.93l11.31,4.57l-7.15,31.6l-3.51,15.53H28.08l8.3-36.69l2.49-10.99L39.77,16.93 M38.76,15l-1.28,5.64
	v0L35,31.64l-8.69,38.41h15.25l3.76-16.64l7.41-32.77L38.76,15L38.76,15z"/>
<path class="st0" d="M60.84,25.44l11.31,4.57l-8.74,38.62H51.07l7.02-31.04L60.84,25.44 M59.82,23.51l-3.12,13.77L49.3,70.05h15.25
	l9.25-40.9L59.82,23.51L59.82,23.51z"/>
<path class="st0" d="M22.98,50.55l3.33,19.5l0.82-3.62l-3.33-19.5L22.98,50.55z M31.67,12.13l-0.82,3.62l3.33,19.5L35,31.64
	L31.67,12.13L31.67,12.13"/>
<path class="st0" d="M50,66.92l-3.98-16.64l-0.71,3.13l3.98,16.64L50,66.92z M52.02,23.77L56,40.41l0.71-3.13l-3.98-16.64
	L52.02,23.77z"/>
</svg>
