<svg id="Layer_1" data-name="Layer 1" xmlns="http://www.w3.org/2000/svg" viewBox="0 0 35 35"><defs><style>.cls-1{fill:#f9f9ff;}</style></defs><path class="cls-1" d="M17.5,0A17.5,17.5,0,1,0,35,17.5,17.51,17.51,0,0,0,17.5,0ZM28.13,9.17l-1.7,1.63a.52.52,0,0,0-.19.48v12a.5.5,0,0,0,.19.47l1.66,1.63v.36H19.75v-.36l1.72-1.67c.17-.17.17-.22.17-.47V13.53L16.86,25.66h-.64L10.66,13.53v8.13a1.11,1.11,0,0,0,.31.93L13.2,25.3v.36H6.87V25.3L9.1,22.59a1.07,1.07,0,0,0,.29-.93v-9.4a.79.79,0,0,0-.27-.69l-2-2.4V8.82H13.3l4.77,10.45L22.25,8.82h5.88Z"/></svg>