<svg id="Layer_1" data-name="Layer 1" xmlns="http://www.w3.org/2000/svg" viewBox="0 0 35 35"><defs><style>.cls-1{fill:#f9f9ff;}</style></defs><path class="cls-1" d="M17.5,0A17.5,17.5,0,1,0,35,17.5,17.51,17.51,0,0,0,17.5,0Zm8.79,14.18c0,.18,0,.36,0,.55a11.92,11.92,0,0,1-12,12,11.75,11.75,0,0,1-6.45-1.91,6.69,6.69,0,0,0,1,.06,8.5,8.5,0,0,0,5.24-1.8,4.2,4.2,0,0,1-3.94-2.93,4.17,4.17,0,0,0,.8.08,4.07,4.07,0,0,0,1.11-.15,4.22,4.22,0,0,1-3.39-4.14v0a4.14,4.14,0,0,0,1.91.53,4.22,4.22,0,0,1-1.31-5.63A12,12,0,0,0,18,15.2a3.82,3.82,0,0,1-.11-1,4.22,4.22,0,0,1,7.3-2.89,8.45,8.45,0,0,0,2.67-1A4.21,4.21,0,0,1,26,12.66,8.41,8.41,0,0,0,28.4,12,8.41,8.41,0,0,1,26.29,14.18Z"/></svg>