<svg id="Layer_1" data-name="Layer 1" xmlns="http://www.w3.org/2000/svg" viewBox="0 0 35 35"><defs><style>.cls-1{fill:#f9f9ff;}</style></defs><path class="cls-1" d="M15.22,20.92l5.92-3.42-5.92-3.42ZM17.5,0A17.5,17.5,0,1,0,35,17.5,17.51,17.51,0,0,0,17.5,0ZM28.41,23a2.87,2.87,0,0,1-2,2c-1.78.47-8.9.47-8.9.47s-7.12,0-8.9-.47a2.87,2.87,0,0,1-2-2,29.34,29.34,0,0,1-.48-5.48A29.34,29.34,0,0,1,6.59,12a2.87,2.87,0,0,1,2-2c1.78-.47,8.9-.47,8.9-.47s7.12,0,8.9.47a2.87,2.87,0,0,1,2,2,29.34,29.34,0,0,1,.48,5.48A29.34,29.34,0,0,1,28.41,23Z"/></svg>