<svg id="Layer_1" data-name="Layer 1" xmlns="http://www.w3.org/2000/svg" viewBox="0 0 35 35"><defs><style>.cls-1,.cls-2{fill:#f9f9ff;}.cls-1{fill-rule:evenodd;}</style></defs><path class="cls-1" d="M17.5.36A17.5,17.5,0,0,0,12,34.47c.87.16,1.19-.38,1.19-.84s0-1.8,0-3.26c-4.87,1.06-5.9-2.07-5.9-2.07A4.62,4.62,0,0,0,5.3,25.74c-1.59-1.08.12-1.06.12-1.06a3.65,3.65,0,0,1,2.68,1.8,3.74,3.74,0,0,0,5.1,1.46,3.68,3.68,0,0,1,1.11-2.34c-3.89-.45-8-2-8-8.65a6.79,6.79,0,0,1,1.81-4.7,6.3,6.3,0,0,1,.17-4.63s1.47-.47,4.81,1.79a16.83,16.83,0,0,1,8.76,0c3.34-2.26,4.81-1.79,4.81-1.79a6.3,6.3,0,0,1,.17,4.63,6.78,6.78,0,0,1,1.8,4.7c0,6.72-4.09,8.2-8,8.63a4.19,4.19,0,0,1,1.19,3.24c0,2.34,0,4.23,0,4.81s.32,1,1.2.83A17.5,17.5,0,0,0,17.5.36Z"/><path class="cls-2" d="M6.63,25.49c0,.09-.18.11-.3.05s-.2-.17-.16-.26a.22.22,0,0,1,.3-.06c.13.06.2.18.16.27Zm-.22-.16"/><path class="cls-2" d="M7.34,26.28A.27.27,0,0,1,7,26.2c-.11-.12-.14-.29-.05-.37a.32.32,0,0,1,.41.45Zm-.17-.18"/><path class="cls-2" d="M8,27.29a.31.31,0,0,1-.39-.15c-.11-.16-.11-.35,0-.42s.28,0,.39.15a.31.31,0,0,1,0,.42Zm0,0"/><path class="cls-2" d="M9,28.26c-.09.11-.3.08-.45-.07s-.19-.34-.1-.44a.34.34,0,0,1,.46.06c.15.14.19.35.09.45Zm0,0"/><path class="cls-2" d="M10.28,28.83a.36.36,0,0,1-.44.14c-.2-.06-.33-.22-.29-.36s.24-.21.44-.14.33.22.29.36Zm0,0"/><path class="cls-2" d="M11.71,28.93c0,.14-.16.26-.37.27s-.38-.12-.38-.26.16-.26.37-.27.38.12.38.26Zm0,0"/><path class="cls-2" d="M13,28.7c0,.14-.12.29-.32.33s-.4-.05-.42-.19.12-.29.32-.33.4,0,.42.19Zm0,0"/></svg>