<svg id="Layer_1" data-name="Layer 1" xmlns="http://www.w3.org/2000/svg" viewBox="0 0 35 35"><defs><style>.cls-1{fill:#f9f9ff;}</style></defs><path class="cls-1" d="M7,22.74A11.78,11.78,0,0,0,14.4,28.8a18.68,18.68,0,0,1-1.77-6.06ZM14.4,6.2A11.78,11.78,0,0,0,7,12.26h5.61A18.68,18.68,0,0,1,14.4,6.2ZM12.26,17.5c0-1.09.05-2.18.14-3.24H6.23a11.64,11.64,0,0,0,0,6.48H12.4C12.31,19.68,12.26,18.59,12.26,17.5ZM28,12.26A11.78,11.78,0,0,0,20.6,6.2a18.68,18.68,0,0,1,1.77,6.06ZM17.5,5.77c-.81,0-2.19,2.26-2.86,6.49h5.72C19.69,8,18.31,5.77,17.5,5.77ZM17.5,0A17.5,17.5,0,1,0,35,17.5,17.51,17.51,0,0,0,17.5,0Zm0,31.23A13.73,13.73,0,1,1,31.23,17.5,13.75,13.75,0,0,1,17.5,31.23Zm11.27-17H22.6c.09,1.06.14,2.15.14,3.24s0,2.18-.14,3.24h6.17a11.64,11.64,0,0,0,0-6.48ZM20.6,28.8A11.78,11.78,0,0,0,28,22.74H22.37A18.68,18.68,0,0,1,20.6,28.8Zm-3.1.43c.81,0,2.19-2.26,2.86-6.49H14.64C15.31,27,16.69,29.23,17.5,29.23Zm3.1-15H14.4c-.09,1-.14,2.07-.14,3.24s.05,2.24.14,3.24h6.2c.09-1,.14-2.07.14-3.24S20.69,15.26,20.6,14.26Z"/></svg>