<svg id="Layer_1" data-name="Layer 1" xmlns="http://www.w3.org/2000/svg" viewBox="0 0 35 35"><defs><style>.cls-1{fill:#f9f9ff;fill-rule:evenodd;}</style></defs><path class="cls-1" d="M17.5,0A17.5,17.5,0,1,0,35,17.5,17.51,17.51,0,0,0,17.5,0Zm8.11,11.9c-.26,2.77-1.4,9.48-2,12.58-.25,1.31-.73,1.75-1.2,1.8-1,.09-1.79-.67-2.77-1.32-1.54-1-2.41-1.64-3.9-2.62-1.73-1.14-.61-1.77.37-2.79.26-.27,4.74-4.34,4.82-4.71a.36.36,0,0,0-.08-.31.38.38,0,0,0-.36,0q-.23,0-7.38,4.87a3.36,3.36,0,0,1-1.9.71,13,13,0,0,1-2.72-.65c-1.09-.35-2-.54-1.89-1.15,0-.31.47-.64,1.3-1q7.65-3.35,10.21-4.4c4.86-2,5.87-2.37,6.52-2.38a1.09,1.09,0,0,1,.68.2.71.71,0,0,1,.25.47A2.91,2.91,0,0,1,25.61,11.9Z"/></svg>